<?xml version="1.0" encoding="UTF-8"?>
<!DOCTYPE svg PUBLIC "-//W3C//DTD SVG 1.1//EN" "http://www.w3.org/Graphics/SVG/1.1/DTD/svg11.dtd">
<!-- Creator: CorelDRAW -->
<svg xmlns="http://www.w3.org/2000/svg" xml:space="preserve" width="140.406mm" height="140.406mm" style="shape-rendering:geometricPrecision; text-rendering:geometricPrecision; image-rendering:optimizeQuality; fill-rule:evenodd; clip-rule:evenodd"
viewBox="0 0 35.1224 35.1224"
 xmlns:xlink="http://www.w3.org/1999/xlink">
 <defs>
  <style type="text/css">
   <![CDATA[
    .fil1 {fill:none}
    .fil0 {fill:#C5C6C6}
    .fil2 {fill:#A9AAAA;fill-rule:nonzero}
   ]]>
  </style>
 </defs>
 <polygon class="fil0" points="43.9371,-17.8757 96.4685,-17.8757 96.4685,56.4187 43.9371,56.4187 "/>
 <rect class="fil1" width="35.1224" height="35.1224"/>
 <path class="fil2" d="M15.4768 9.01626c0,0.294976 -0.0629376,0.501449 -0.188788,0.61942 -0.12585,0.117995 -0.338202,0.176981 -0.637105,0.176981l-1.95262 0 0 -0.566313 0.371647 0 0 -3.03219 -0.371647 0 0 -0.566313 1.95262 0c0.287096,0 0.496522,0.061937 0.628275,0.185811 0.131729,0.123899 0.197618,0.327421 0.197618,0.610565l0 2.57204zm-0.625323 -0.0530817l0 -2.50124c0,-0.0943814 -0.0176856,-0.15927 -0.0530817,-0.194666 -0.0353961,-0.0353961 -0.102261,-0.0531067 -0.20057,-0.0531067l-0.902589 0 0 3.03219 0.902589 0c0.102236,0 0.170077,-0.0216379 0.203522,-0.0648888 0.03342,-0.0432758 0.0501299,-0.116019 0.0501299,-0.21828z"/>
 <path id="1" class="fil2" d="M17.7234 8.1668l-0.530942 0 0 -0.353961c0,-0.106188 -0.0530817,-0.15927 -0.15927,-0.15927l-0.283169 0 0 1.62817 0.353961 0 0 0.530917 -1.25653 0 0 -0.530917 0.336251 0 0 -1.62817 -0.336251 0 0 -0.530942 1.345 0c0.353961,0 0.530942,0.176981 0.530942,0.530942l0 0.513232z"/>
 <path id="12" class="fil2" d="M20.2541 9.81266l-1.81694 0c-0.298904,0 -0.448343,-0.157319 -0.448343,-0.471932l0 -0.672502c0,-0.291024 0.16715,-0.436536 0.501424,-0.436536l0.896685 0 0 -0.442439c0,-0.090454 -0.0472032,-0.135681 -0.141585,-0.135681l-0.530917 0c-0.0865267,0 -0.129778,0.045227 -0.129778,0.135681l0 0.265459 -0.542724 0 0 -0.454246c0,-0.31854 0.186787,-0.477835 0.56041,-0.477835l0.731512 0c0.216279,0 0.373598,0.0442514 0.471932,0.132729 0.0983087,0.0885029 0.147463,0.238918 0.147463,0.451295l0 1.57509 0.300855 0 0 0.530917zm-0.867168 -0.530917l0 -0.554531 -0.701994 0c-0.0944064,0 -0.141585,0.045227 -0.141585,0.135681l0 0.277266c0,0.0943814 0.0471782,0.141585 0.141585,0.141585l0.701994 0z"/>
 <path id="123" class="fil2" d="M22.779 7.65357l-0.300855 0 0 2.74311c0,0.204497 -0.0422752,0.344105 -0.126826,0.418825 -0.0845755,0.0747446 -0.231063,0.112092 -0.439487,0.112092l-0.825893 0c-0.259555,0 -0.41885,-0.0865267 -0.477835,-0.259555 -0.0235891,-0.0668649 -0.0353961,-0.269411 -0.0353961,-0.607613l0.548628 0c0,0.145512 0,0.220232 0,0.224159 0.0157344,0.0747196 0.0688161,0.112092 0.15927,0.112092l0.471932 0c0.106188,0 0.159295,-0.0531067 0.159295,-0.159295l0 -0.424729 -0.825893 0c-0.381478,0 -0.572217,-0.176981 -0.572217,-0.530917l0 -1.59278c0,-0.37755 0.169101,-0.566338 0.507328,-0.566338l1.75795 0 0 0.530942zm-0.867168 1.62817l0 -1.62817 -0.678405 0c-0.0983337,0 -0.147488,0.0530817 -0.147488,0.15927l0 1.30961c0,0.106188 0.0530817,0.159295 0.15927,0.159295l0.666623 0z"/>
 <polygon id="1234" class="fil2" points="15.3225,14.2075 15.0039,14.2075 13.9421,17.4816 13.2459,17.4816 13.2459,16.9506 13.5586,16.9506 13.771,16.2722 13.0572,14.2075 12.7386,14.2075 12.7386,13.6766 13.4583,13.6766 14.0482,15.4228 14.6322,13.6766 15.3225,13.6766 "/>
 <path id="12345" class="fil2" d="M17.6054 15.7531c0,0.409019 -0.175005,0.613516 -0.525014,0.613516l-0.97926 0c-0.353961,0 -0.530942,-0.204497 -0.530942,-0.613516l0 -1.4571c0,-0.412947 0.176981,-0.61942 0.530942,-0.61942l0.97926 0c0.350009,0 0.525014,0.206473 0.525014,0.61942l0 1.4571zm-0.572217 -0.0766958l0 -1.3037c0,-0.110116 -0.0511305,-0.165174 -0.153367,-0.165174l-0.57812 0c-0.106188,0 -0.159295,0.0550579 -0.159295,0.165174l0 1.3037c0,0.106188 0.0531067,0.159295 0.159295,0.159295l0.57812 0c0.102236,0 0.153367,-0.0531067 0.153367,-0.159295z"/>
 <path id="123456" class="fil2" d="M20.5206 16.3666l-1.73436 0c-0.361816,0 -0.542724,-0.176981 -0.542724,-0.530917l0 -1.62817 -0.31854 0 0 -0.530942 0.884878 0 0 2.01753c0,0.0943814 0.00587851,0.141585 0.0176856,0.141585l0.808183 0 0 -1.62817 -0.31854 0 0 -0.530942 0.884878 0 0 2.15911 0.31854 0 0 0.530917z"/>
 <path id="1234567" class="fil2" d="M22.5784 14.7208l-0.530942 0 0 -0.353961c0,-0.106188 -0.0530817,-0.15927 -0.15927,-0.15927l-0.283169 0 0 1.62817 0.353961 0 0 0.530917 -1.25653 0 0 -0.530917 0.336251 0 0 -1.62817 -0.336251 0 0 -0.530942 1.345 0c0.353961,0 0.530942,0.176981 0.530942,0.530942l0 0.513232z"/>
 <path id="12345678" class="fil2" d="M12.5891 22.3897c0,0.353936 -0.188763,0.530917 -0.566313,0.530917l-0.81999 0 0 0.584024 0.353961 0 0 0.530917 -1.23884 0 0 -0.530917 0.318565 0 0 -2.74311 -0.318565 0 0 -0.530942 1.70487 0c0.37755,0 0.566313,0.198619 0.566313,0.595831l0 1.56328zm-0.566313 -0.159295l0 -1.30961c0,-0.106188 -0.0531067,-0.15927 -0.15927,-0.15927l-0.66072 0 0 1.62817 0.66072 0c0.106163,0 0.15927,-0.0531067 0.15927,-0.159295z"/>
 <path id="123456789" class="fil2" d="M13.9155 19.5227c0,0.0983337 -0.0363967,0.18386 -0.10914,0.256628 -0.0727685,0.0727434 -0.158295,0.109115 -0.256628,0.109115 -0.110116,0 -0.197618,-0.03342 -0.262507,-0.100285 -0.0648888,-0.0668399 -0.0973331,-0.155343 -0.0973331,-0.265459 0,-0.247748 0.119947,-0.371647 0.35984,-0.371647 0.102261,0 0.188788,0.0363717 0.25958,0.10914 0.0707923,0.0727434 0.106188,0.160271 0.106188,0.262507zm0.271362 3.39793l-1.22703 0 0 -0.530917 0.336251 0 0 -1.62817 -0.336251 0 0 -0.530942 0.908468 0 0 2.15911 0.318565 0 0 0.530917z"/>
 <path id="12345678910" class="fil2" d="M16.3459 22.9206l-1.26833 0c-0.381478,0 -0.572217,-0.204497 -0.572217,-0.613516l0 -1.5043c0,-0.381478 0.202546,-0.572217 0.607613,-0.572217l1.23294 0 0 0.902589 -0.536821 0 0 -0.371647 -0.572217 0c-0.106188,0 -0.159295,0.0550579 -0.159295,0.165174l0 1.3037c0,0.106188 0.0531067,0.159295 0.159295,0.159295l0.572217 0 0 -0.359865 0.536821 0 0 0.890782z"/>
 <path id="1234567891011" class="fil2" d="M17.8856 22.9206l-0.442439 0c-0.353936,0 -0.530917,-0.176981 -0.530917,-0.530917l0 -1.62817 -0.318565 0 0 -0.530942 0.318565 0 0 -0.849482 0.566313 0 0 0.849482 0.407043 0 0 0.530942 -0.407043 0 0 1.46888c0,0.106188 0.0531067,0.159295 0.159295,0.159295l0.247748 0 0 0.530917z"/>
 <path id="123456789101112" class="fil2" d="M20.5707 22.9206l-1.73436 0c-0.361816,0 -0.542724,-0.176981 -0.542724,-0.530917l0 -1.62817 -0.31854 0 0 -0.530942 0.884878 0 0 2.01753c0,0.0943814 0.00587851,0.141585 0.0176856,0.141585l0.808183 0 0 -1.62817 -0.31854 0 0 -0.530942 0.884878 0 0 2.15911 0.31854 0 0 0.530917z"/>
 <path id="12345678910111213" class="fil2" d="M22.6286 21.2747l-0.530942 0 0 -0.353961c0,-0.106188 -0.0530817,-0.15927 -0.15927,-0.15927l-0.283169 0 0 1.62817 0.353961 0 0 0.530917 -1.25653 0 0 -0.530917 0.336251 0 0 -1.62817 -0.336251 0 0 -0.530942 1.345 0c0.353961,0 0.530942,0.176981 0.530942,0.530942l0 0.513232z"/>
 <path id="1234567891011121314" class="fil2" d="M24.8761 22.3071c0,0.409019 -0.190739,0.613516 -0.572217,0.613516l-0.802304 0c-0.381478,0 -0.572217,-0.204497 -0.572217,-0.613516l0 -1.5043c0,-0.381478 0.202546,-0.572217 0.607613,-0.572217l0.731512 0c0.405067,0 0.607613,0.190739 0.607613,0.572217l0 1.02056 -1.37452 0 0 0.407043c0,0.106188 0.0531067,0.159295 0.159295,0.159295l0.507328 0c0.090454,0 0.143536,-0.0373723 0.15927,-0.112092 0,-0.00392735 0,-0.078647 0,-0.224159l0.548628 0 0 0.253651zm-0.548628 -0.97926l0 -0.40114c0,-0.110116 -0.0531067,-0.165174 -0.15927,-0.165174l-0.507328 0c-0.106188,0 -0.159295,0.0550579 -0.159295,0.165174l0 0.40114 0.825893 0z"/>
 <path id="123456789101112131415" class="fil2" d="M15.5319 29.4746l-0.890757 0 0 -1.98213c0,-0.0825743 -0.0157344,-0.132729 -0.0472032,-0.150415 -0.0314688,-0.0177106 -0.0747196,-0.0265409 -0.129778,-0.0265409l-0.61942 0 0 1.62817 0.324469 0 0 0.530917 -1.23294 0 0 -0.530917 0.336251 0 0 -3.08527 -0.318565 0 0 -0.548628 0.890782 0 0 1.47478 0.761004 0c0.405067,0 0.607613,0.176981 0.607613,0.530942l0 1.62817 0.31854 0 0 0.530917z"/>
 <path id="12345678910111213141516" class="fil2" d="M17.7972 28.861c0,0.409019 -0.190739,0.613516 -0.572217,0.613516l-0.802304 0c-0.381478,0 -0.572217,-0.204497 -0.572217,-0.613516l0 -1.5043c0,-0.381478 0.202546,-0.572217 0.607613,-0.572217l0.731512 0c0.405067,0 0.607613,0.190739 0.607613,0.572217l0 1.02056 -1.37452 0 0 0.407043c0,0.106188 0.0531067,0.159295 0.159295,0.159295l0.507328 0c0.090454,0 0.143536,-0.0373723 0.15927,-0.112092 0,-0.00392735 0,-0.078647 0,-0.224159l0.548628 0 0 0.253651zm-0.548628 -0.97926l0 -0.40114c0,-0.110116 -0.0531067,-0.165174 -0.15927,-0.165174l-0.507328 0c-0.106188,0 -0.159295,0.0550579 -0.159295,0.165174l0 0.40114 0.825893 0z"/>
 <path id="1234567891011121314151617" class="fil2" d="M20.0093 27.8287l-0.530942 0 0 -0.353961c0,-0.106188 -0.0530817,-0.15927 -0.15927,-0.15927l-0.283169 0 0 1.62817 0.353961 0 0 0.530917 -1.25653 0 0 -0.530917 0.336251 0 0 -1.62817 -0.336251 0 0 -0.530942 1.345 0c0.353961,0 0.530942,0.176981 0.530942,0.530942l0 0.513232z"/>
 <path id="123456789101112131415161718" class="fil2" d="M22.2569 28.861c0,0.409019 -0.190739,0.613516 -0.572217,0.613516l-0.802304 0c-0.381478,0 -0.572217,-0.204497 -0.572217,-0.613516l0 -1.5043c0,-0.381478 0.202546,-0.572217 0.607613,-0.572217l0.731512 0c0.405067,0 0.607613,0.190739 0.607613,0.572217l0 1.02056 -1.37452 0 0 0.407043c0,0.106188 0.0531067,0.159295 0.159295,0.159295l0.507328 0c0.090454,0 0.143536,-0.0373723 0.15927,-0.112092 0,-0.00392735 0,-0.078647 0,-0.224159l0.548628 0 0 0.253651zm-0.548628 -0.97926l0 -0.40114c0,-0.110116 -0.0531067,-0.165174 -0.15927,-0.165174l-0.507328 0c-0.106188,0 -0.159295,0.0550579 -0.159295,0.165174l0 0.40114 0.825893 0z"/>
</svg>
