<?xml version="1.0" encoding="UTF-8"?>
<!DOCTYPE svg PUBLIC "-//W3C//DTD SVG 1.1//EN" "http://www.w3.org/Graphics/SVG/1.1/DTD/svg11.dtd">
<!-- Creator: CorelDRAW -->
<svg xmlns="http://www.w3.org/2000/svg" xml:space="preserve" width="57.4763mm" height="60.0054mm" style="shape-rendering:geometricPrecision; text-rendering:geometricPrecision; image-rendering:optimizeQuality; fill-rule:evenodd; clip-rule:evenodd"
viewBox="0 0 65.6224 68.51"
 xmlns:xlink="http://www.w3.org/1999/xlink">
 <defs>
  <style type="text/css">
   <![CDATA[
    .str0 {stroke:#FEFEFE;stroke-width:0.805605;stroke-linejoin:round}
    .fil1 {fill:none}
    .fil0 {fill:#C5C6C6}
    .fil2 {fill:#FEFEFE}
   ]]>
  </style>
 </defs>
 <polygon class="fil0" points="-148.62,-109.103 91.1435,-109.103 91.1435,229.991 -148.62,229.991 "/>
 <polygon id="1" class="fil1 str0" points="24.7602,24.8858 43.8444,0.402917 36.5623,23.128 "/>
 <polygon class="fil1 str0" points="32.813,14.5551 24.7602,24.8858 13.2094,21.2447 "/>
 <polygon class="fil2 str0" points="24.7602,24.8858 18.6241,22.9516 14.9043,26.1414 "/>
 <polygon class="fil1 str0" points="18.6241,22.9516 13.2094,21.2447 14.9043,26.1414 "/>
 <polygon class="fil1 str0" points="14.9043,26.1414 13.2094,21.2447 10.51,27.083 "/>
 <polygon class="fil1 str0" points="14.9043,26.1414 10.51,27.083 6.61781,31.7286 "/>
 <polygon class="fil1 str0" points="14.9043,26.1414 6.61781,31.7286 24.7602,24.8858 "/>
 <polygon class="fil1 str0" points="6.61781,31.7286 1.03064,34.1768 10.51,27.083 "/>
 <polygon class="fil1 str0" points="6.61781,31.7286 1.03064,34.1768 4.04504,35.5485 "/>
 <polygon class="fil1 str0" points="6.61781,31.7286 24.7602,24.8858 26.6435,29.0291 "/>
 <polygon class="fil1 str0" points="26.6435,29.0291 24.7602,24.8858 36.5623,23.128 "/>
 <polygon class="fil1 str0" points="32.813,14.5551 28.0899,16.1669 34.2396,3.0394 37.5586,8.46696 "/>
 <polygon class="fil1 str0" points="36.5623,23.128 43.8444,0.402917 45.351,21.2446 "/>
 <polygon class="fil1 str0" points="1.03064,34.1768 1.53289,39.2616 4.04504,35.5485 "/>
 <polygon class="fil1 str0" points="6.61781,31.7286 5.29946,41.3959 0.402802,40.9566 "/>
 <polygon class="fil1 str0" points="5.29946,41.3959 0.402802,40.9566 4.43608,45.0214 "/>
 <polygon class="fil1 str0" points="6.61781,31.7286 26.6435,29.0291 22.3902,43.1381 5.29946,41.3959 "/>
 <polygon class="fil1 str0" points="5.29946,41.3959 4.43608,45.0214 22.3902,43.1381 "/>
 <polygon class="fil1 str0" points="22.3902,43.1381 26.6435,29.0291 29.233,46.4025 "/>
 <polygon class="fil1 str0" points="26.6435,29.0291 36.5623,23.128 38.8064,31.3045 "/>
 <polygon class="fil1 str0" points="36.5623,23.128 45.351,21.2446 38.8064,31.3045 "/>
 <polygon class="fil1 str0" points="26.6435,29.0291 38.8064,31.3045 29.233,46.4025 "/>
 <polygon class="fil1 str0" points="6.56678,44.798 10.1487,51.3616 9.96536,44.4414 "/>
 <polygon class="fil1 str0" points="6.56678,44.798 5.11164,44.9505 8.40656,50.4985 8.15252,47.7037 "/>
 <polygon class="fil1 str0" points="38.8064,31.3045 29.233,46.4025 46.3239,40.1088 "/>
 <polygon class="fil1 str0" points="29.233,46.4025 31.1319,55.0496 48.2072,49.5253 "/>
 <polygon class="fil1 str0" points="29.233,46.4025 46.3239,40.1088 48.2072,49.5253 "/>
 <polygon class="fil1 str0" points="31.1319,55.0496 48.2072,49.5253 43.0594,58.5651 "/>
 <polygon class="fil1 str0" points="38.3768,57.1848 31.1319,55.0496 25.8586,68.1072 "/>
 <polygon class="fil1 str0" points="38.3768,57.1848 43.0594,58.5651 32.1177,62.6459 "/>
 <polygon class="fil1 str0" points="25.8586,68.1072 31.1319,55.0496 20.4599,64.9683 "/>
 <polygon class="fil1 str0" points="23.7452,61.9148 18.8905,59.1928 22.0171,63.5208 "/>
 <polygon class="fil1 str0" points="20.9584,62.0552 17.9488,60.5111 20.9437,64.5186 22.0171,63.5208 "/>
 <polygon class="fil1 str0" points="45.351,21.2446 45.0625,17.2539 61.7041,24.0379 "/>
 <polygon class="fil1 str0" points="38.8064,31.3045 65.2196,41.1131 61.7041,24.0379 "/>
 <polygon class="fil1 str0" points="61.7041,24.0379 38.8064,31.3045 45.351,21.2446 "/>
 <polygon class="fil1 str0" points="38.8064,31.3045 46.3239,40.1088 59.1984,38.8771 "/>
 <polygon class="fil1 str0" points="46.3239,40.1088 48.2072,49.5253 60.9508,61.8294 65.2196,41.1131 59.1984,38.8771 "/>
 <polygon class="fil1 str0" points="43.0594,58.5651 48.2072,49.5253 47.5165,66.3494 "/>
 <polygon class="fil1 str0" points="47.5165,66.3494 48.2072,49.5253 60.9508,61.8294 "/>
 <polygon class="fil1 str0" points="29.233,46.4025 16.5286,50.5064 30.5177,52.2525 "/>
 <polygon class="fil1 str0" points="30.5177,52.2525 25.7077,51.6521 29.9157,56.1799 31.1319,55.0496 "/>
 <polygon class="fil1 str0" points="21.8676,51.1728 16.5286,50.5064 13.3898,54.9008 "/>
 <polygon class="fil1 str0" points="13.3898,54.9008 16.8445,53.3816 14.1431,57.1607 "/>
 <polygon class="fil1 str0" points="25.7077,51.6521 21.8676,51.1728 27.8118,53.9159 "/>
</svg>
