<?xml version="1.0" encoding="UTF-8"?>
<!DOCTYPE svg PUBLIC "-//W3C//DTD SVG 1.1//EN" "http://www.w3.org/Graphics/SVG/1.1/DTD/svg11.dtd">
<!-- Creator: CorelDRAW -->
<svg xmlns="http://www.w3.org/2000/svg" xml:space="preserve" width="73.1794mm" height="67.6013mm" style="shape-rendering:geometricPrecision; text-rendering:geometricPrecision; image-rendering:optimizeQuality; fill-rule:evenodd; clip-rule:evenodd"
viewBox="0 0 120.519 111.332"
 xmlns:xlink="http://www.w3.org/1999/xlink">
 <defs>
  <style type="text/css">
   <![CDATA[
    .str0 {stroke:#FEFEFE;stroke-width:1.16205;stroke-linejoin:round}
    .fil1 {fill:none}
    .fil0 {fill:#C5C6C6}
   ]]>
  </style>
 </defs>
 <polygon class="fil0" points="-209.514,-11.6211 136.334,-11.6211 136.334,477.506 -209.514,477.506 "/>
 <polygon id="1" class="fil1 str0" points="54.0321,30.4659 49.6748,62.4202 61.2944,59.5153 "/>
 <polygon class="fil1 str0" points="61.2944,59.5153 54.0321,30.4659 110.679,69.9731 "/>
 <polygon class="fil1 str0" points="54.0321,30.4659 49.6748,62.4202 32.245,35.1138 "/>
 <polygon class="fil1 str0" points="49.6748,62.4202 32.245,35.1138 28.3233,69.6826 "/>
 <polygon class="fil1 str0" points="28.3233,69.6826 32.245,35.1138 17.8653,49.348 "/>
 <polygon class="fil1 str0" points="28.3233,69.6826 17.8653,49.348 5.37414,75.783 7.11705,82.9 "/>
 <polygon class="fil1 str0" points="28.3233,69.6826 7.11705,82.9 14.9605,90.0172 "/>
 <polygon class="fil1 str0" points="28.3233,69.6826 14.9605,90.0172 22.5134,86.386 33.2617,73.3138 "/>
 <polygon class="fil1 str0" points="28.3233,69.6826 49.6748,62.4202 33.2617,73.3138 "/>
 <polygon class="fil1 str0" points="17.8653,49.348 5.37414,75.783 0.581024,75.0567 13.0722,49.9289 "/>
 <polygon class="fil1 str0" points="17.8653,49.348 13.0722,49.9289 20.1894,34.678 "/>
 <polygon class="fil1 str0" points="17.8653,49.348 20.1894,34.678 32.245,35.1138 "/>
 <polygon class="fil1 str0" points="5.37414,75.783 0.581024,75.0567 0.581024,82.1737 7.11705,82.9 "/>
 <polygon class="fil1 str0" points="7.11705,82.9 0.581024,82.1737 7.95203,88.6011 14.9605,90.0172 "/>
 <polygon class="fil1 str0" points="32.245,35.1138 20.1894,34.678 26.7619,24.9099 38.5268,19.5358 "/>
 <polygon class="fil1 str0" points="38.5268,19.5358 26.7619,24.9099 29.8119,16.7761 33.2979,15.7593 "/>
 <polygon class="fil1 str0" points="26.7619,24.9099 20.1894,34.678 25.0188,24.2564 29.8119,16.7761 "/>
 <polygon class="fil1 str0" points="33.2979,15.7593 29.8119,16.7761 20.8793,5.5194 "/>
 <polygon class="fil1 str0" points="38.5268,19.5358 33.2979,15.7593 30.3931,1.96079 33.2981,4.57524 "/>
 <polygon class="fil1 str0" points="33.2981,4.57524 30.3931,1.96079 33.3705,0.581024 "/>
 <polygon class="fil1 str0" points="33.2981,4.57524 33.3705,0.581024 43.3201,12.7819 38.5268,19.5358 "/>
 <polygon class="fil1 str0" points="54.0321,30.4659 38.5268,19.5358 32.245,35.1138 "/>
 <polygon class="fil1 str0" points="38.5619,19.4864 43.3201,12.7819 54.7218,21.5692 54.0321,30.4659 "/>
 <polygon class="fil1 str0" points="54.7218,21.5692 43.3201,12.7819 51.0908,15.3235 "/>
 <polygon class="fil1 str0" points="54.7218,21.5692 51.0908,15.3235 66.4869,18.9548 "/>
 <polygon class="fil1 str0" points="54.7218,21.5692 66.4869,18.9548 91.0337,35.3677 54.0321,30.4659 "/>
 <polygon class="fil1 str0" points="54.0321,30.4659 110.679,69.9731 91.0337,35.3677 "/>
 <polygon class="fil1 str0" points="110.679,69.9731 91.0337,35.3677 119.938,64.5624 "/>
 <polygon class="fil1 str0" points="110.679,69.9731 61.2944,59.5153 88.4193,107.701 "/>
 <polygon class="fil1 str0" points="49.6748,62.4202 61.2944,59.5153 56.6102,68.9199 "/>
 <polygon class="fil1 str0" points="61.2944,59.5153 56.6102,68.9199 74.3302,110.751 "/>
 <polygon class="fil1 str0" points="61.2944,59.5153 88.4193,107.701 74.3302,110.751 "/>
</svg>
