<?xml version="1.0" encoding="UTF-8"?>
<!DOCTYPE svg PUBLIC "-//W3C//DTD SVG 1.1//EN" "http://www.w3.org/Graphics/SVG/1.1/DTD/svg11.dtd">
<!-- Creator: CorelDRAW -->
<svg xmlns="http://www.w3.org/2000/svg" xml:space="preserve" width="80.8638mm" height="78.5701mm" style="shape-rendering:geometricPrecision; text-rendering:geometricPrecision; image-rendering:optimizeQuality; fill-rule:evenodd; clip-rule:evenodd"
viewBox="0 0 36.9914 35.9421"
 xmlns:xlink="http://www.w3.org/1999/xlink">
 <defs>
  <style type="text/css">
   <![CDATA[
    .str0 {stroke:#FEFEFE;stroke-width:0.322779;stroke-linejoin:round}
    .fil1 {fill:none}
    .fil0 {fill:#C5C6C6}
    .fil2 {fill:#FEFEFE}
   ]]>
  </style>
 </defs>
 <polygon class="fil0" points="-7.60062,-49.2179 88.4644,-49.2179 88.4644,86.6455 -7.60062,86.6455 "/>
 <polygon id="1" class="fil1 str0" points="0.161389,14.7813 8.63378,12.3 5.18431,14.2366 "/>
 <polygon class="fil1 str0" points="8.92124,12.1941 5.18431,14.2366 10.5552,14.524 "/>
 <polygon class="fil1 str0" points="8.7771,12.2729 8.92124,12.1941 10.6763,10.7417 12.0379,10.8022 12.0379,12.3151 "/>
 <polygon class="fil1 str0" points="8.84915,12.2335 12.0379,12.3151 10.5552,14.524 "/>
 <polygon class="fil1 str0" points="12.0379,10.8022 10.6763,10.7417 12.7338,9.95495 15.0032,10.2273 "/>
 <polygon class="fil1 str0" points="12.0379,10.8022 15.0032,10.2273 17.0305,12.1033 "/>
 <polygon class="fil1 str0" points="12.0379,10.8022 12.0379,12.3151 14.0556,11.3281 "/>
 <polygon class="fil2 str0" points="12.0379,12.3151 13.0467,11.8216 13.2785,13.0111 "/>
 <polygon class="fil1 str0" points="13.0467,11.8216 13.2785,13.0111 17.0305,12.1033 14.0556,11.3281 "/>
 <polygon class="fil1 str0" points="13.2785,13.0111 17.0305,12.1033 17.6055,13.5255 "/>
 <polygon class="fil1 str0" points="13.2785,13.0111 11.8866,16.2185 10.5552,14.524 "/>
 <polygon class="fil1 str0" points="12.0379,12.3151 13.2785,13.0111 10.5552,14.524 "/>
 <polygon class="fil1 str0" points="11.8866,16.2185 17.6055,13.5255 13.2785,13.0111 "/>
 <polygon class="fil1 str0" points="17.6055,13.5255 11.8866,16.2185 13.2785,17.5801 "/>
 <polygon class="fil1 str0" points="13.2785,17.5801 16.4986,14.5627 19.8295,25.0388 "/>
 <polygon class="fil1 str0" points="18.7886,23.8538 13.2785,17.5801 14.5039,21.1657 "/>
 <polygon class="fil1 str0" points="16.901,15.8285 22.3997,10.6841 17.8336,18.7615 "/>
 <polygon class="fil1 str0" points="21.5304,12.2182 22.3997,10.6841 34.1121,0.161389 30.5114,8.01864 "/>
 <polygon class="fil1 str0" points="21.5304,12.2182 30.5114,8.01864 36.83,7.85817 30.5084,12.2179 20.8438,13.43 "/>
 <polygon class="fil1 str0" points="20.2018,14.563 20.8438,13.43 30.5084,12.218 33.4141,13.4059 27.746,16.3759 "/>
 <polygon class="fil1 str0" points="19.4082,15.9636 20.2018,14.563 27.746,16.3759 29.5402,18.3007 25.6458,19.498 "/>
 <polygon class="fil1 str0" points="18.5377,17.4999 19.4082,15.9636 23.8254,18.4665 24.2385,20.0919 "/>
 <polygon class="fil1 str0" points="18.5377,17.4999 21.7755,18.972 21.9252,20.7403 17.8336,18.7615 "/>
 <polygon class="fil1 str0" points="16.4986,14.5627 17.6055,13.5255 18.767,14.0828 16.901,15.8285 "/>
 <polygon class="fil1 str0" points="24.2385,20.0919 23.8254,18.4665 28.2411,22.6787 21.9252,20.7403 21.7755,18.972 "/>
 <polygon class="fil1 str0" points="17.8336,18.7615 21.9252,20.7403 19.8295,25.0388 "/>
 <polygon class="fil1 str0" points="21.9252,20.7403 19.8295,25.0388 28.2411,22.6787 "/>
 <polygon class="fil1 str0" points="23.3349,24.0553 28.2411,22.6787 31.4485,28.8515 "/>
 <polygon class="fil1 str0" points="23.3349,24.0553 19.8295,25.0388 30.0806,28.0429 "/>
 <polygon class="fil1 str0" points="28.5962,27.6079 24.955,26.5409 28.7858,32.1799 "/>
 <polygon class="fil1 str0" points="28.5962,27.6079 28.7268,30.759 30.6013,34.7822 30.0806,28.0429 "/>
 <polygon class="fil1 str0" points="30.0806,28.0429 30.4244,32.4939 33.2036,35.7807 "/>
 <polygon class="fil1 str0" points="30.0806,28.0429 31.4485,28.8515 33.9903,33.6323 32.1438,33.1549 "/>
</svg>
