<?xml version="1.0" encoding="UTF-8"?>
<!DOCTYPE svg PUBLIC "-//W3C//DTD SVG 1.1//EN" "http://www.w3.org/Graphics/SVG/1.1/DTD/svg11.dtd">
<!-- Creator: CorelDRAW -->
<svg xmlns="http://www.w3.org/2000/svg" xml:space="preserve" width="82.9569mm" height="98.0063mm" style="shape-rendering:geometricPrecision; text-rendering:geometricPrecision; image-rendering:optimizeQuality; fill-rule:evenodd; clip-rule:evenodd"
viewBox="0 0 34.4743 40.7283"
 xmlns:xlink="http://www.w3.org/1999/xlink">
 <defs>
  <style type="text/css">
   <![CDATA[
    .str0 {stroke:#FEFEFE;stroke-width:0.293225;stroke-linejoin:round}
    .fil1 {fill:none}
    .fil0 {fill:#C5C6C6}
   ]]>
  </style>
 </defs>
 <polygon class="fil0" points="-2.15622,-3.12374 85.1131,-3.12374 85.1131,120.3 -2.15622,120.3 "/>
 <polygon id="1" class="fil1 str0" points="13.3991,24.6537 13.2031,20.1739 21.4862,19.7809 21.8298,23.7484 18.7179,29.1803 "/>
 <polygon class="fil1 str0" points="21.4862,19.7809 25.2247,18.9388 21.8298,23.7484 "/>
 <polygon class="fil1 str0" points="13.2031,20.1739 13.3991,24.6537 8.64619,20.5231 "/>
 <polygon class="fil1 str0" points="13.3991,24.6537 18.7179,29.1803 13.484,28.9539 "/>
 <polygon class="fil1 str0" points="18.7179,29.1803 21.8298,23.7484 23.1425,26.3738 "/>
 <polygon class="fil1 str0" points="18.7179,29.1803 22.2258,28.6145 23.1425,26.3738 "/>
 <polygon class="fil1 str0" points="18.7179,29.1803 15.7474,38.2052 13.484,28.9539 "/>
 <polygon class="fil1 str0" points="22.2258,28.6145 23.386,31.6983 18.7179,29.1803 "/>
 <polygon class="fil1 str0" points="15.7474,38.2052 23.386,31.6983 18.7179,29.1803 "/>
 <polygon class="fil1 str0" points="23.386,31.6983 21.4622,40.5817 15.7474,38.2052 "/>
 <polygon class="fil1 str0" points="25.9888,32.83 23.386,31.6983 21.4622,40.5817 "/>
 <polygon class="fil1 str0" points="21.4862,19.7809 21.2711,18.4935 17.3447,19.9774 "/>
 <polygon class="fil1 str0" points="21.2711,18.4935 17.3447,19.9774 17.4235,18.4935 "/>
 <polygon class="fil1 str0" points="21.2711,18.4935 17.4235,18.4935 19.8,16.0038 "/>
 <polygon class="fil1 str0" points="21.2711,18.4935 19.8,16.0038 25.0621,17.0223 "/>
 <polygon class="fil1 str0" points="25.0621,17.0223 21.9024,16.4108 24.3831,14.9853 "/>
 <polygon class="fil1 str0" points="25.0621,17.0223 24.3831,14.9853 29.0796,12.4674 "/>
 <polygon class="fil1 str0" points="26.7314,13.7264 24.3831,14.9853 24.7793,10.487 "/>
 <polygon class="fil1 str0" points="29.0796,12.4674 23.5911,7.60137 24.7793,10.487 "/>
 <polygon class="fil1 str0" points="29.0796,12.4674 24.7793,10.487 26.7314,13.7264 "/>
 <polygon class="fil1 str0" points="29.0796,12.4674 27.4903,11.0584 29.5888,8.56328 "/>
 <polygon class="fil1 str0" points="29.0796,12.4674 29.5888,8.56328 31.2863,9.18564 "/>
 <polygon class="fil1 str0" points="29.5888,8.56328 28.0579,10.3837 27.7923,7.67206 "/>
 <polygon class="fil1 str0" points="29.5888,8.56328 27.7923,7.67206 28.8108,5.77657 "/>
 <polygon class="fil1 str0" points="27.7923,7.67206 28.8108,5.77657 26.8304,5.06931 "/>
 <polygon class="fil1 str0" points="28.8108,5.77657 26.8304,5.06931 27.1699,3.28694 "/>
 <polygon class="fil1 str0" points="31.2863,9.18564 29.5888,8.56328 31.6116,5.77657 "/>
 <polygon class="fil1 str0" points="31.6116,5.77657 32.5735,5.86147 31.2863,9.18564 "/>
 <polygon class="fil1 str0" points="32.5735,5.86147 31.6116,5.77657 32.8847,3.485 "/>
 <polygon class="fil1 str0" points="32.5735,5.86147 32.8847,3.485 34.3276,2.69284 "/>
 <polygon class="fil1 str0" points="34.3276,2.69284 32.8847,3.485 32.8564,0.146612 "/>
 <polygon class="fil1 str0" points="13.2031,20.1739 14.6743,17.6843 9.41216,18.7028 "/>
 <polygon class="fil1 str0" points="9.41216,18.7028 12.5719,18.0912 10.0911,16.6658 "/>
 <polygon class="fil1 str0" points="9.41216,18.7028 10.0911,16.6658 5.3947,14.1479 "/>
 <polygon class="fil1 str0" points="7.74287,15.4069 10.0911,16.6658 9.69496,12.1675 "/>
 <polygon class="fil1 str0" points="5.3947,14.1479 10.8832,9.2818 9.69496,12.1675 "/>
 <polygon class="fil1 str0" points="5.3947,14.1479 9.69496,12.1675 7.74287,15.4069 "/>
 <polygon class="fil1 str0" points="5.3947,14.1479 6.98392,12.7389 4.8855,10.2437 "/>
 <polygon class="fil1 str0" points="5.3947,14.1479 4.8855,10.2437 3.18799,10.8661 "/>
 <polygon class="fil1 str0" points="4.8855,10.2437 6.41637,12.0642 6.68192,9.35253 "/>
 <polygon class="fil1 str0" points="4.8855,10.2437 6.68192,9.35253 5.66345,7.457 "/>
 <polygon class="fil1 str0" points="6.68192,9.35253 5.66345,7.457 7.64384,6.74974 "/>
 <polygon class="fil1 str0" points="5.66345,7.457 7.64384,6.74974 7.30432,4.96737 "/>
 <polygon class="fil1 str0" points="3.18799,10.8661 4.8855,10.2437 2.86264,7.457 "/>
 <polygon class="fil1 str0" points="2.86264,7.457 1.90077,7.5419 3.18799,10.8661 "/>
 <polygon class="fil1 str0" points="1.90077,7.5419 2.86264,7.457 1.58955,5.16543 "/>
 <polygon class="fil1 str0" points="1.90077,7.5419 1.58955,5.16543 0.146654,4.37327 "/>
 <polygon class="fil1 str0" points="0.146654,4.37327 1.58955,5.16543 1.61781,1.82705 "/>
 <polygon class="fil1 str0" points="17.3447,19.9774 17.4235,18.4935 13.2031,20.1739 "/>
 <polygon class="fil1 str0" points="13.2031,20.1739 14.6743,17.6843 17.4235,18.4935 "/>
 <polygon class="fil1 str0" points="14.6743,17.6843 13.292,17.9519 14.5522,13.3303 "/>
 <path class="fil1 str0" d="M14.6743 17.6843l-0.122136 -4.35399c0.16976,0.311219 1.15,4.65653 1.15,4.65653l-1.02787 -0.302534z"/>
</svg>
