<?xml version="1.0" encoding="UTF-8"?>
<!DOCTYPE svg PUBLIC "-//W3C//DTD SVG 1.1//EN" "http://www.w3.org/Graphics/SVG/1.1/DTD/svg11.dtd">
<!-- Creator: CorelDRAW -->
<svg xmlns="http://www.w3.org/2000/svg" xml:space="preserve" width="80.2497mm" height="60.6129mm" style="shape-rendering:geometricPrecision; text-rendering:geometricPrecision; image-rendering:optimizeQuality; fill-rule:evenodd; clip-rule:evenodd"
viewBox="0 0 38.756 29.2726"
 xmlns:xlink="http://www.w3.org/1999/xlink">
 <defs>
  <style type="text/css">
   <![CDATA[
    .str0 {stroke:#FEFEFE;stroke-width:0.340765;stroke-linejoin:round}
    .fil1 {fill:none}
    .fil0 {fill:#C5C6C6}
    .fil2 {fill:#FEFEFE}
   ]]>
  </style>
 </defs>
 <polygon class="fil0" points="-10.5842,-94.5545 90.8339,-94.5545 90.8339,48.8796 -10.5842,48.8796 "/>
 <polygon id="1" class="fil1 str0" points="25.7007,27.5242 23.698,26.4692 22.7919,24.1766 26.5865,23.8807 "/>
 <polygon class="fil1 str0" points="26.5865,23.8807 28.6469,23.8519 27.5618,26.6335 "/>
 <polygon class="fil1 str0" points="25.7007,27.5242 27.5618,26.6335 26.5865,23.8807 "/>
 <polygon class="fil2 str0" points="22.7919,24.1766 26.5994,23.8779 28.6469,23.8519 25.6492,22.7022 "/>
 <polygon class="fil1 str0" points="22.7919,24.1766 25.6492,22.7022 21.4386,16.7037 "/>
 <polygon class="fil1 str0" points="25.6492,22.7022 28.6469,23.8519 27.0591,16.7405 "/>
 <polygon class="fil1 str0" points="25.6492,22.7022 27.0591,16.7405 23.7836,14.7116 21.4386,16.7037 "/>
 <polygon class="fil1 str0" points="21.4386,16.7037 19.4985,20.8802 22.7919,24.1766 "/>
 <polygon class="fil1 str0" points="22.7919,24.1766 18.412,23.5463 19.4985,20.8802 "/>
 <polygon class="fil1 str0" points="18.412,23.5463 23.698,26.4692 22.7919,24.1766 "/>
 <polygon class="fil1 str0" points="18.412,23.5463 20.9655,27.5448 23.698,26.4692 "/>
 <polygon class="fil1 str0" points="20.9655,27.5448 23.698,26.4692 25.7007,27.5242 23.3526,28.5487 "/>
 <polygon class="fil1 str0" points="28.6469,23.8519 27.5618,26.6335 26.8455,28.2694 28.4592,27.5553 "/>
 <polygon class="fil1 str0" points="25.7007,27.5242 27.5618,26.6335 26.8455,28.2694 24.9839,29.1023 23.3526,28.5487 "/>
 <polygon class="fil1 str0" points="28.6469,23.8519 32.4236,16.3195 28.2073,18.4534 27.0591,16.7405 "/>
 <polygon class="fil1 str0" points="28.2073,18.4534 29.2907,15.5566 27.0591,16.7405 "/>
 <polygon class="fil2 str0" points="27.0591,16.7405 29.2907,15.5566 27.4096,15.0066 "/>
 <polygon class="fil1 str0" points="27.0591,16.7405 23.7836,14.7116 26.2585,13.0633 27.4096,15.0066 "/>
 <polygon class="fil1 str0" points="26.2585,13.0633 27.4096,15.0066 29.2907,15.5566 30.6483,14.3851 "/>
 <polygon class="fil1 str0" points="28.2073,18.4534 29.2907,15.5566 30.6483,14.3851 32.4236,16.3195 "/>
 <polygon class="fil1 str0" points="26.2585,13.0633 30.6483,14.3851 30.0457,7.01683 "/>
 <polygon class="fil1 str0" points="30.6483,14.3851 33.7217,10.8844 30.0457,7.01683 "/>
 <polygon class="fil1 str0" points="30.6483,14.3851 32.4236,16.3195 37.0439,16.2551 33.7217,10.8844 "/>
 <polygon class="fil1 str0" points="28.6469,23.8519 28.4592,27.5553 30.6537,23.721 37.0439,16.2551 32.4236,16.3195 "/>
 <polygon class="fil1 str0" points="21.4386,16.7037 23.7836,14.7116 23.066,8.03646 20.6443,13.4876 "/>
 <polygon class="fil1 str0" points="23.7836,14.7116 26.2585,13.0633 30.0457,7.01683 23.066,8.03646 "/>
 <polygon class="fil1 str0" points="21.4386,16.7037 19.4985,20.8802 16.319,16.7752 16.8135,16.4226 19.8215,17.1875 "/>
 <polygon class="fil2 str0" points="21.4386,16.7037 19.6646,14.8844 16.8135,16.4226 19.8215,17.1875 "/>
 <polygon class="fil1 str0" points="21.4386,16.7037 19.6646,14.8844 16.8135,16.4226 20.6443,13.4876 "/>
 <polygon class="fil1 str0" points="16.8135,16.4226 13.3907,12.782 20.6443,13.4876 "/>
 <polygon class="fil1 str0" points="20.6443,13.4876 14.4243,6.31308 13.3907,12.782 "/>
 <polygon class="fil1 str0" points="20.6443,13.4876 23.066,8.03646 20.7588,3.804 14.4243,6.31308 "/>
 <polygon class="fil1 str0" points="23.066,8.03646 30.0457,7.01683 24.0071,3.87378 20.7588,3.804 "/>
 <polygon class="fil1 str0" points="13.3907,12.782 7.11829,10.7949 12.3047,6.57305 14.4243,6.31308 "/>
 <polygon class="fil1 str0" points="13.3907,12.782 8.29503,14.5821 9.50751,20.9045 16.8135,16.4226 "/>
 <polygon class="fil1 str0" points="16.319,16.7752 13.5017,20.7335 18.412,23.5463 19.4985,20.8802 "/>
 <polygon class="fil1 str0" points="16.319,16.7752 13.5017,20.7335 9.50751,20.9045 "/>
 <polygon class="fil1 str0" points="13.3907,12.782 8.29503,14.5821 7.11829,10.7949 "/>
 <polygon class="fil1 str0" points="9.50751,20.9045 8.29503,14.5821 7.11829,10.7949 5.68583,15.5406 "/>
 <polygon class="fil1 str0" points="14.4243,6.31308 20.7588,3.804 15.144,0.888519 "/>
 <polygon class="fil1 str0" points="14.4243,6.31308 12.3047,6.57305 12.0018,2.77378 15.144,0.888519 "/>
 <polygon class="fil1 str0" points="12.3047,6.57305 12.0018,2.77378 10.1073,0.372253 "/>
 <polygon class="fil1 str0" points="12.3047,6.57305 6.53982,5.15532 8.59349,0.170431 10.1073,0.372253 "/>
 <polygon class="fil1 str0" points="12.3047,6.57305 7.11829,10.7949 6.53982,5.15532 "/>
 <polygon class="fil1 str0" points="20.7588,3.804 24.0071,3.87378 24.4631,0.75542 15.144,0.888519 "/>
 <polygon class="fil1 str0" points="24.0071,3.87378 30.0457,7.01683 28.2364,2.66222 "/>
 <polygon class="fil1 str0" points="24.4631,0.75542 28.2364,2.66222 24.0071,3.87378 "/>
 <polygon class="fil1 str0" points="30.0457,7.01683 28.2364,2.66222 30.4679,1.47843 "/>
 <polygon class="fil1 str0" points="30.0457,7.01683 33.4172,6.96969 33.7217,10.8844 "/>
 <polygon class="fil1 str0" points="33.4172,6.96969 34.2885,4.37547 32.6584,2.09288 30.4679,1.47843 "/>
 <polygon class="fil1 str0" points="30.0457,7.01683 33.4172,6.96969 32.2338,2.72177 30.4679,1.47843 "/>
 <polygon class="fil1 str0" points="30.6537,23.721 37.0439,16.2551 38.5857,19.3457 35.3826,22.5023 "/>
 <polygon class="fil1 str0" points="9.50751,20.9045 13.5017,20.7335 11.5794,26.1774 "/>
 <polygon class="fil1 str0" points="13.5017,20.7335 18.412,23.5463 11.5794,26.1774 "/>
 <polygon class="fil1 str0" points="18.412,23.5463 20.9655,27.5448 17.3573,28.5171 "/>
 <polygon class="fil1 str0" points="11.5794,26.1774 17.3573,28.5171 18.412,23.5463 "/>
 <polygon class="fil1 str0" points="11.5794,26.1774 5.26717,23.8545 3.07524,20.879 9.50751,20.9045 "/>
 <polygon class="fil1 str0" points="9.50751,20.9045 5.68583,15.5406 3.07524,20.879 "/>
 <polygon class="fil1 str0" points="5.68583,15.5406 7.11829,10.7949 2.11553,10.2884 "/>
 <polygon class="fil1 str0" points="7.11829,10.7949 6.53982,5.15532 2.11553,10.2884 "/>
 <polygon class="fil1 str0" points="6.53982,5.15532 6.49472,1.92868 8.59349,0.170431 "/>
 <polygon class="fil1 str0" points="2.11553,10.2885 5.68583,15.5407 0.170382,18.4013 "/>
 <polygon class="fil1 str0" points="0.170382,18.4013 5.68583,15.5407 3.07524,20.879 "/>
</svg>
