<?xml version="1.0" encoding="UTF-8"?>
<!DOCTYPE svg PUBLIC "-//W3C//DTD SVG 1.1//EN" "http://www.w3.org/Graphics/SVG/1.1/DTD/svg11.dtd">
<!-- Creator: CorelDRAW -->
<svg xmlns="http://www.w3.org/2000/svg" xml:space="preserve" width="68.2019mm" height="49.8166mm" style="shape-rendering:geometricPrecision; text-rendering:geometricPrecision; image-rendering:optimizeQuality; fill-rule:evenodd; clip-rule:evenodd"
viewBox="0 0 75.6213 55.236"
 xmlns:xlink="http://www.w3.org/1999/xlink">
 <defs>
  <style type="text/css">
   <![CDATA[
    .str0 {stroke:#FEFEFE;stroke-width:0.78236;stroke-linejoin:round}
    .fil2 {fill:none}
    .fil0 {fill:#C5C6C6}
    .fil1 {fill:#FEFEFE}
   ]]>
  </style>
 </defs>
 <polygon class="fil0" points="-82.3216,-67.8165 150.524,-67.8165 150.524,261.493 -82.3216,261.493 "/>
 <polygon id="1" class="fil1 str0" points="24.534,18.8333 15.4649,21.4557 17.9282,16.0176 "/>
 <polygon class="fil2 str0" points="17.9282,16.0176 15.4649,21.4557 11.8869,20.123 11.3575,14.4714 "/>
 <polygon class="fil2 str0" points="11.8869,20.123 0.964644,34.6286 15.4649,21.4557 "/>
 <polygon class="fil2 str0" points="15.4649,21.4557 0.964644,34.6286 5.11217,38.308 "/>
 <polygon class="fil2 str0" points="5.11217,38.308 0.39118,37.3277 0.964644,34.6286 "/>
 <polygon class="fil2 str0" points="24.534,18.8333 15.4649,21.4557 21.802,27.6467 "/>
 <polygon class="fil2 str0" points="15.4649,21.4557 5.11217,38.308 21.802,27.6467 "/>
 <polygon class="fil2 str0" points="21.802,27.6467 5.11217,38.308 10.2922,43.5562 31.5867,36.4334 "/>
 <polygon class="fil2 str0" points="5.11217,38.308 0.39118,37.3277 6.34259,43.2045 10.2922,43.5562 "/>
 <polygon class="fil2 str0" points="30.115,9.51716 46.391,21.1546 36.0737,34.6555 29.0243,29.3387 "/>
 <polygon class="fil2 str0" points="17.9282,16.0176 24.1815,6.82148 24.534,18.8333 "/>
 <polygon class="fil2 str0" points="18.6805,5.59072 11.3575,14.4714 17.9282,16.0176 24.1815,6.82148 "/>
 <polygon class="fil2 str0" points="18.6805,5.59072 24.1815,6.82148 34.8023,1.6124 29.2078,0.391069 "/>
 <polygon class="fil2 str0" points="34.8023,1.6124 24.1815,6.82148 40.3842,3.6366 "/>
 <polygon class="fil2 str0" points="40.3842,3.6366 24.1815,6.82148 30.115,9.51716 "/>
 <polygon class="fil2 str0" points="30.115,9.51716 40.3842,3.6366 46.391,21.1546 "/>
 <polygon class="fil2 str0" points="30.115,9.51716 24.1815,6.82148 29.3482,23.4507 "/>
 <polygon class="fil2 str0" points="24.1815,6.82148 24.534,18.8333 29.3482,23.4507 "/>
 <polygon class="fil2 str0" points="24.534,18.8333 29.3482,23.4507 29.185,26.4166 21.802,27.6467 "/>
 <polygon class="fil2 str0" points="29.0243,29.3387 35.5414,34.2541 31.5867,36.4334 21.802,27.6467 29.185,26.4166 "/>
 <polygon class="fil2 str0" points="39.7823,29.8026 42.7674,31.1672 36.9381,33.5244 "/>
 <polygon class="fil2 str0" points="45.1446,17.5196 40.3842,3.6366 46.571,4.65613 "/>
 <polygon class="fil2 str0" points="45.1446,17.5196 46.571,4.65613 60.4722,26.2966 46.391,21.1546 "/>
 <polygon class="fil2 str0" points="39.7823,29.8026 42.7674,31.1672 60.4722,26.2966 46.391,21.1546 "/>
 <polygon class="fil2 str0" points="60.4722,26.2966 42.7674,31.1672 55.3355,51.2933 "/>
 <polygon class="fil2 str0" points="55.3355,51.2933 42.7674,31.1672 34.3841,54.8447 "/>
 <polygon class="fil2 str0" points="34.3841,54.8447 42.7674,31.1672 36.9381,33.5244 36.0737,34.6555 35.5414,34.2541 31.5867,36.4334 27.302,37.8665 "/>
 <polygon class="fil2 str0" points="34.3841,54.8447 27.302,37.8665 30.4544,53.9959 "/>
 <polygon class="fil2 str0" points="55.3355,51.2933 60.4722,26.2966 75.2302,36.2265 "/>
 <polygon class="fil2 str0" points="60.4722,26.2966 53.2436,15.0436 75.2302,36.2265 "/>
</svg>
