<?xml version="1.0" encoding="UTF-8"?>
<!DOCTYPE svg PUBLIC "-//W3C//DTD SVG 1.1//EN" "http://www.w3.org/Graphics/SVG/1.1/DTD/svg11.dtd">
<!-- Creator: CorelDRAW -->
<svg xmlns="http://www.w3.org/2000/svg" xml:space="preserve" width="69.6735mm" height="84.4009mm" style="shape-rendering:geometricPrecision; text-rendering:geometricPrecision; image-rendering:optimizeQuality; fill-rule:evenodd; clip-rule:evenodd"
viewBox="0 0 88.7932 107.562"
 xmlns:xlink="http://www.w3.org/1999/xlink">
 <defs>
  <style type="text/css">
   <![CDATA[
    .str0 {stroke:#FEFEFE;stroke-width:0.89923;stroke-linejoin:round}
    .fil1 {fill:none}
    .fil0 {fill:#C5C6C6}
   ]]>
  </style>
 </defs>
 <polygon class="fil0" points="-168.651,-229.173 98.9772,-229.173 98.9772,149.33 -168.651,149.33 "/>
 <polygon id="1" class="fil1 str0" points="41.5867,41.6987 36.9189,107.109 55.0745,107.112 "/>
 <polygon class="fil1 str0" points="36.9189,107.109 44.7339,92.7268 55.0745,107.112 "/>
 <polygon class="fil1 str0" points="44.7339,92.7268 39.4089,72.2155 36.9189,107.109 "/>
 <polygon class="fil1 str0" points="44.7339,92.7268 48.3306,74.4057 55.0745,107.112 "/>
 <polygon class="fil1 str0" points="39.4089,72.2155 48.3306,74.4057 41.5867,41.6987 "/>
 <polygon class="fil1 str0" points="40.7952,52.789 24.5024,47.3185 28.9983,54.7368 "/>
 <polygon class="fil1 str0" points="40.7952,52.789 28.9983,54.7368 38.8258,80.3856 "/>
 <polygon class="fil1 str0" points="38.1639,89.6621 28.9983,54.7368 18.3565,69.769 "/>
 <polygon class="fil1 str0" points="43.8252,52.5554 59.795,48.4426 57.7718,54.2872 "/>
 <polygon class="fil1 str0" points="43.8252,52.5554 57.7718,54.2872 49.7438,81.2595 "/>
 <polygon class="fil1 str0" points="49.7438,81.2595 57.7718,54.2872 68.5621,71.1467 "/>
 <polygon class="fil1 str0" points="28.9983,54.7368 24.5024,47.3185 18.3565,69.769 "/>
 <polygon class="fil1 str0" points="57.7718,54.2872 59.795,48.4426 68.5621,71.1467 "/>
 <polygon class="fil1 str0" points="18.3565,69.769 2.47275,64.8525 21.8527,56.9979 "/>
 <polygon class="fil1 str0" points="68.5621,71.1467 61.9871,54.1196 86.0959,63.5038 "/>
 <polygon class="fil1 str0" points="34.7472,86.2308 26.8195,78.2686 36.9189,107.109 "/>
 <polygon class="fil1 str0" points="55.0745,107.112 60.1829,75.6496 49.7438,81.2595 "/>
 <polygon class="fil1 str0" points="24.5024,47.3185 40.7952,52.789 29.813,13.8528 "/>
 <polygon class="fil1 str0" points="43.8252,52.5554 48.6918,21.5661 59.795,48.4426 "/>
 <polygon class="fil1 str0" points="41.5867,41.6987 50.0444,12.9537 43.8252,52.5554 "/>
 <polygon class="fil1 str0" points="29.813,13.8528 41.5867,41.6987 40.7952,52.789 "/>
 <polygon class="fil1 str0" points="29.813,13.8528 50.0444,12.9537 41.5867,41.6987 "/>
 <polygon class="fil1 str0" points="21.8527,56.9979 7.73776,62.7187 0.449488,58.5583 "/>
 <polygon class="fil1 str0" points="61.9871,54.1196 79.0235,60.751 88.3437,56.5351 "/>
 <polygon class="fil1 str0" points="21.8527,56.9979 6.12129,58.1449 25.6604,40.0215 "/>
 <polygon class="fil1 str0" points="61.9871,54.1196 56.3352,40.0291 79.0814,55.6864 "/>
 <polygon class="fil1 str0" points="25.6604,40.0215 11.0431,53.5798 13.9372,32.4823 "/>
 <polygon class="fil1 str0" points="73.0334,51.5234 56.3352,40.0291 64.9653,30.4591 "/>
 <polygon class="fil1 str0" points="25.6604,40.0215 13.9372,32.4823 29.813,13.8528 "/>
 <polygon class="fil1 str0" points="48.6918,21.5661 50.0444,12.9537 64.9653,30.4591 56.3352,40.0291 "/>
 <polygon class="fil1 str0" points="12.5724,67.9787 8.14761,70.9219 18.3565,69.769 "/>
 <polygon class="fil1 str0" points="68.5621,71.1467 81.0123,70.8362 76.2366,67.8014 "/>
 <polygon class="fil1 str0" points="29.813,13.8528 15.5654,2.69756 23.2197,21.5899 "/>
 <polygon class="fil1 str0" points="23.2197,21.5899 15.5654,2.69756 19.0759,26.4523 "/>
 <polygon class="fil1 str0" points="57.5048,21.7064 50.0444,12.9537 62.3224,0.449615 "/>
 <polygon class="fil1 str0" points="57.5048,21.7064 62.3224,0.449615 61.1836,26.0225 "/>
</svg>
