<?xml version="1.0" encoding="utf-8"?>
<!-- Generator: Adobe Illustrator 16.0.2, SVG Export Plug-In . SVG Version: 6.00 Build 0)  -->
<!DOCTYPE svg PUBLIC "-//W3C//DTD SVG 1.1//EN" "http://www.w3.org/Graphics/SVG/1.1/DTD/svg11.dtd">
<svg version="1.1" id="Слой_1" xmlns="http://www.w3.org/2000/svg" xmlns:xlink="http://www.w3.org/1999/xlink" x="0px" y="0px"
	 width="465.167px" height="137.584px" viewBox="0 0 465.167 137.584" enable-background="new 0 0 465.167 137.584"
	 xml:space="preserve">
<path fill="#FFFFFF" d="M174.983,41.434l0.5-0.022l-0.302-6.915l12.654-0.604l0.511,5.931l-4.745,8.326l-8.294-7.096L174.983,41.434
	l0.5-0.022L174.983,41.434l-0.326,0.38l8.754,7.49c0.113,0.097,0.265,0.138,0.412,0.113c0.146-0.025,0.274-0.116,0.348-0.245
	l5.122-8.988c0.05-0.089,0.071-0.188,0.063-0.29l-0.565-6.565c-0.023-0.268-0.255-0.47-0.522-0.457l-13.632,0.65
	c-0.274,0.013-0.487,0.247-0.476,0.521l0.322,7.413c0.006,0.139,0.068,0.268,0.174,0.358L174.983,41.434L174.983,41.434z
	 M188.292,33.371l0.11,0.488l4.888-1.107l-4.052,5.772l-0.448-5.196L188.292,33.371l0.11,0.488L188.292,33.371l-0.498,0.043
	l0.565,6.565c0.018,0.209,0.166,0.385,0.367,0.44c0.203,0.055,0.42-0.024,0.54-0.195l5.587-7.958
	c0.119-0.169,0.121-0.394,0.006-0.566s-0.324-0.255-0.525-0.209l-6.153,1.394c-0.244,0.055-0.409,0.281-0.387,0.53L188.292,33.371
	L188.292,33.371z M174.661,34.021l-0.5,0.022l0.271,6.246l-6.046-5.283l6.312-0.486L174.661,34.021l-0.5,0.022L174.661,34.021
	l-0.039-0.499l-7.5,0.578c-0.2,0.015-0.372,0.15-0.437,0.341c-0.063,0.19-0.005,0.402,0.146,0.534l7.821,6.834
	c0.151,0.132,0.365,0.161,0.547,0.074c0.181-0.087,0.291-0.272,0.283-0.473L175.159,34c-0.006-0.136-0.065-0.263-0.168-0.353
	c-0.101-0.09-0.234-0.135-0.369-0.125L174.661,34.021L174.661,34.021z M174.983,41.434l-0.326,0.38l7.652,6.547l-6.695-0.291
	l-0.131-6.646L174.983,41.434l-0.326,0.38L174.983,41.434l-0.5,0.01l0.139,7.115c0.006,0.264,0.215,0.478,0.479,0.49l8.614,0.375
	c0.213,0.009,0.409-0.118,0.487-0.316c0.078-0.198,0.021-0.425-0.141-0.563l-8.754-7.49c-0.15-0.128-0.359-0.157-0.538-0.072
	s-0.291,0.264-0.286,0.462L174.983,41.434L174.983,41.434z M183.737,48.924l0.434,0.248l4.656-8.173l1.543,3.102l-6.902,4.402
	L183.737,48.924l0.434,0.248L183.737,48.924l0.268,0.422l7.283-4.644c0.215-0.137,0.291-0.416,0.178-0.644l-2.16-4.344
	c-0.082-0.166-0.249-0.272-0.434-0.277c-0.186-0.005-0.356,0.091-0.448,0.252l-5.122,8.988c-0.113,0.2-0.076,0.452,0.09,0.61
	s0.42,0.183,0.613,0.06L183.737,48.924L183.737,48.924z M183.737,48.924l0.08,0.494l5.772-0.936
	c0.171-0.028,0.317-0.145,0.383-0.305l1.509-3.708c0.082-0.202,0.024-0.434-0.143-0.573s-0.406-0.154-0.589-0.038l-7.282,4.644
	c-0.2,0.127-0.283,0.378-0.199,0.6c0.085,0.221,0.314,0.354,0.549,0.315L183.737,48.924l0.268,0.422l5.959-3.8l-0.811,1.993
	l-5.496,0.892L183.737,48.924l0.268,0.422L183.737,48.924L183.737,48.924z M183.737,48.924l-0.477-0.155l-4.342,13.265
	l-3.153-12.956l7.949,0.346L183.737,48.924l-0.477-0.155L183.737,48.924l0.021-0.5l-8.613-0.375
	c-0.157-0.007-0.309,0.061-0.407,0.182c-0.101,0.121-0.138,0.283-0.101,0.436l3.726,15.308c0.053,0.217,0.242,0.373,0.467,0.381
	c0.223,0.009,0.425-0.132,0.494-0.344l4.889-14.933c0.049-0.149,0.025-0.311-0.064-0.44c-0.09-0.129-0.232-0.208-0.39-0.215
	L183.737,48.924L183.737,48.924z M189.509,47.988l-0.468,0.175l1.439,3.85l-5.219-2.831l4.327-0.701L189.509,47.988l-0.468,0.175
	L189.509,47.988l-0.08-0.494l-5.772,0.937c-0.213,0.034-0.377,0.198-0.414,0.41c-0.035,0.211,0.066,0.421,0.254,0.523l7.684,4.167
	c0.184,0.099,0.409,0.074,0.566-0.063c0.158-0.137,0.214-0.357,0.141-0.552l-1.91-5.103c-0.083-0.224-0.313-0.356-0.548-0.318
	L189.509,47.988L189.509,47.988z M178.847,63.857l0.325,0.379l12.57-10.767c0.125-0.106,0.19-0.27,0.173-0.433
	c-0.018-0.163-0.114-0.309-0.259-0.387l-7.683-4.166c-0.13-0.071-0.285-0.08-0.423-0.025c-0.139,0.055-0.244,0.168-0.291,0.309
	l-4.889,14.933c-0.069,0.212,0.012,0.447,0.197,0.571c0.187,0.124,0.435,0.109,0.604-0.036L178.847,63.857l0.476,0.155l4.701-14.363
	l6.518,3.534l-12.02,10.294L178.847,63.857l0.476,0.155L178.847,63.857L178.847,63.857z M191.418,53.09l-0.489-0.105l-3.039,14.111
	l-8.101-3.387l11.953-10.239L191.418,53.09l-0.489-0.105L191.418,53.09l-0.325-0.38l-12.571,10.767
	c-0.132,0.113-0.195,0.286-0.169,0.458c0.027,0.172,0.142,0.316,0.302,0.384l9.404,3.932c0.137,0.058,0.293,0.051,0.426-0.018
	c0.131-0.069,0.226-0.193,0.256-0.338l3.166-14.699c0.045-0.209-0.049-0.425-0.232-0.535s-0.418-0.09-0.581,0.05L191.418,53.09
	L191.418,53.09z M195.702,54.963l0.201-0.458l-4.285-1.873c-0.137-0.06-0.293-0.055-0.428,0.013
	c-0.133,0.068-0.229,0.193-0.261,0.34l-3.166,14.699c-0.051,0.24,0.079,0.483,0.31,0.571c0.229,0.089,0.488-0.002,0.611-0.215
	l7.45-12.826c0.072-0.124,0.088-0.271,0.043-0.407c-0.044-0.136-0.144-0.246-0.274-0.303L195.702,54.963l-0.433-0.251l-5.862,10.095
	l2.371-11.014l3.725,1.628L195.702,54.963l-0.433-0.251L195.702,54.963L195.702,54.963z M195.702,54.963l-0.078,0.494l10.33,1.648
	l-16.336,9.329l6.517-11.22L195.702,54.963l-0.078,0.494L195.702,54.963l-0.433-0.251l-7.448,12.826
	c-0.114,0.196-0.082,0.443,0.076,0.604c0.16,0.161,0.406,0.194,0.604,0.082l19.183-10.954c0.185-0.104,0.282-0.316,0.244-0.524
	s-0.204-0.371-0.413-0.404l-11.732-1.873c-0.205-0.032-0.408,0.064-0.513,0.243L195.702,54.963L195.702,54.963z M178.847,63.857
	l-0.485,0.118l4.377,18.069c0.052,0.214,0.239,0.37,0.459,0.382c0.221,0.012,0.424-0.125,0.498-0.332l5.027-14.137
	c0.089-0.25-0.033-0.526-0.277-0.629l-9.405-3.932c-0.175-0.073-0.374-0.042-0.517,0.081c-0.145,0.122-0.207,0.315-0.162,0.498
	L178.847,63.857l-0.192,0.461l8.967,3.749l-4.307,12.11l-3.981-16.438L178.847,63.857l-0.192,0.461L178.847,63.857L178.847,63.857z
	 M207.435,56.835l-0.248-0.434l-19.183,10.954c-0.156,0.09-0.253,0.257-0.252,0.438c0.001,0.181,0.1,0.347,0.258,0.435l27.75,15.354
	c0.18,0.1,0.402,0.079,0.561-0.051c0.158-0.131,0.221-0.346,0.157-0.541l-8.567-26.308c-0.047-0.143-0.155-0.257-0.295-0.312
	c-0.141-0.054-0.297-0.042-0.429,0.032L207.435,56.835l-0.475,0.155l8.174,25.102l-25.862-14.31l18.411-10.513L207.435,56.835
	l-0.475,0.155L207.435,56.835L207.435,56.835z M188.252,67.789l-0.416,0.276l14.992,22.563c0.145,0.219,0.434,0.288,0.662,0.158
	l12.758-7.209c0.158-0.089,0.255-0.256,0.254-0.438c0-0.182-0.098-0.347-0.258-0.436l-27.75-15.354
	c-0.202-0.112-0.453-0.071-0.61,0.099c-0.156,0.169-0.176,0.423-0.048,0.615L188.252,67.789l-0.242,0.438l26.968,14.921
	l-11.573,6.54l-14.735-22.175L188.252,67.789l-0.242,0.438L188.252,67.789L188.252,67.789z M190.581,89.697l-0.026,0.499
	l12.665,0.655c0.188,0.01,0.367-0.089,0.46-0.252c0.093-0.164,0.086-0.367-0.019-0.524l-14.991-22.563
	c-0.128-0.192-0.369-0.272-0.587-0.194c-0.217,0.079-0.352,0.293-0.327,0.523l2.328,21.908c0.026,0.244,0.226,0.434,0.471,0.446
	L190.581,89.697l0.496-0.053l-2.111-19.879l13.313,20.035l-11.672-0.604L190.581,89.697l0.496-0.053L190.581,89.697L190.581,89.697z
	 M183.224,81.926l-0.362,0.344l7.355,7.771c0.146,0.155,0.378,0.199,0.572,0.109c0.195-0.089,0.311-0.293,0.287-0.506l-2.327-21.908
	c-0.024-0.233-0.206-0.417-0.438-0.444c-0.232-0.028-0.451,0.108-0.529,0.329l-5.028,14.137c-0.063,0.178-0.022,0.375,0.108,0.512
	L183.224,81.926l0.472,0.168l4.291-12.067l1.94,18.253l-6.34-6.697L183.224,81.926l0.472,0.168L183.224,81.926L183.224,81.926z
	 M207.435,56.835l0.117,0.486l18.207-4.375l-9.746,28.615l-8.103-24.88L207.435,56.835l0.117,0.486L207.435,56.835l-0.475,0.155
	l8.567,26.308c0.066,0.206,0.256,0.344,0.472,0.345c0.216,0.002,0.407-0.134,0.477-0.338L227,52.409
	c0.058-0.172,0.018-0.364-0.104-0.498c-0.123-0.134-0.31-0.192-0.486-0.149l-19.09,4.587c-0.136,0.033-0.252,0.121-0.319,0.242
	c-0.068,0.122-0.082,0.267-0.039,0.399L207.435,56.835L207.435,56.835z M226.526,52.248l-0.43,0.257l10.182,16.999l-19.34,12.443
	L227,52.409L226.526,52.248l-0.43,0.257L226.526,52.248l-0.474-0.161L215.53,82.982c-0.069,0.201-0.002,0.424,0.164,0.555
	c0.168,0.131,0.4,0.142,0.579,0.026l20.952-13.481c0.229-0.146,0.299-0.445,0.159-0.678l-10.431-17.414
	c-0.1-0.167-0.287-0.261-0.48-0.241c-0.193,0.021-0.357,0.152-0.421,0.336L226.526,52.248L226.526,52.248z M236.956,69.661
	l-0.436-0.247l-8.037,14.144l-10.951-0.804l19.693-12.672L236.956,69.661l-0.436-0.247L236.956,69.661l-0.271-0.42l-20.951,13.482
	c-0.181,0.116-0.268,0.336-0.215,0.544s0.234,0.359,0.448,0.375l12.758,0.937c0.192,0.014,0.376-0.084,0.472-0.252l8.194-14.418
	c0.113-0.199,0.075-0.452-0.091-0.61c-0.167-0.158-0.422-0.182-0.615-0.058L236.956,69.661L236.956,69.661z M236.956,69.661
	l-0.495,0.073l1.614,10.996l-8.26,2.506l7.575-13.328L236.956,69.661l-0.495,0.073L236.956,69.661l-0.436-0.247l-8.193,14.418
	c-0.103,0.179-0.084,0.398,0.043,0.56c0.129,0.16,0.34,0.226,0.537,0.166l9.869-2.995c0.237-0.072,0.387-0.307,0.351-0.552
	l-1.677-11.422c-0.03-0.211-0.193-0.38-0.402-0.419s-0.422,0.059-0.527,0.244L236.956,69.661L236.956,69.661z M228.761,84.079
	l-0.17-0.47l-6.041,2.176l-3.999-1.953l10.173,0.746L228.761,84.079l-0.17-0.47L228.761,84.079l0.036-0.499l-12.758-0.936
	c-0.239-0.018-0.457,0.137-0.52,0.368s0.047,0.475,0.264,0.58l6.519,3.183c0.121,0.061,0.261,0.067,0.388,0.021l6.24-2.247
	c0.223-0.08,0.357-0.306,0.326-0.538c-0.032-0.233-0.225-0.414-0.459-0.432L228.761,84.079L228.761,84.079z M222.522,86.326
	l-0.199-0.459l-5.412,2.344l-0.34-4.234l5.731,2.799L222.522,86.326l-0.199-0.459L222.522,86.326l0.219-0.449l-6.519-3.184
	c-0.162-0.078-0.353-0.064-0.501,0.037s-0.23,0.273-0.217,0.453l0.466,5.804c0.013,0.162,0.103,0.306,0.241,0.389
	s0.307,0.095,0.456,0.03l6.053-2.621c0.179-0.077,0.296-0.253,0.302-0.447c0.004-0.194-0.106-0.375-0.281-0.461L222.522,86.326
	L222.522,86.326z M216.468,88.947l-0.053-0.497L205.592,89.6l9.975-5.636l0.403,5.023L216.468,88.947l-0.053-0.497L216.468,88.947
	l0.499-0.039l-0.466-5.805c-0.015-0.17-0.113-0.322-0.265-0.402c-0.15-0.08-0.332-0.077-0.48,0.007L203,89.916
	c-0.207,0.117-0.304,0.363-0.23,0.589c0.072,0.225,0.293,0.369,0.529,0.344l13.224-1.403c0.27-0.029,0.467-0.268,0.445-0.537
	L216.468,88.947L216.468,88.947z M238.631,81.084l-0.494-0.074l-2.961,19.736l-5.77-16.34l9.369-2.844L238.631,81.084l-0.494-0.074
	L238.631,81.084l-0.145-0.479l-9.871,2.995c-0.131,0.04-0.239,0.13-0.301,0.253c-0.063,0.123-0.072,0.263-0.025,0.393l6.611,18.725
	c0.076,0.216,0.291,0.354,0.52,0.331s0.413-0.197,0.447-0.423l3.259-21.721c0.024-0.171-0.038-0.341-0.168-0.453
	s-0.308-0.15-0.472-0.1L238.631,81.084L238.631,81.084z M238.558,80.585l-0.495,0.073l0.069,0.471l0.728,21.257l-2.912-0.067
	l3.105-21.662L238.558,80.585l-0.495,0.073L238.558,80.585l-0.495-0.071l-3.186,22.219c-0.02,0.143,0.021,0.285,0.113,0.395
	c0.093,0.109,0.228,0.174,0.371,0.177l4.004,0.095c0.137,0.002,0.271-0.052,0.367-0.148c0.096-0.098,0.148-0.232,0.144-0.369
	l-0.745-21.814l-0.005-0.056l-0.073-0.498c-0.037-0.247-0.247-0.429-0.496-0.428s-0.459,0.183-0.494,0.429L238.558,80.585
	L238.558,80.585z M239.377,102.898l-0.471-0.168l-2.32,6.534l-0.654-5.948l3.434,0.082L239.377,102.898l-0.471-0.168
	L239.377,102.898l0.011-0.5l-4.004-0.095c-0.146-0.003-0.282,0.056-0.38,0.162s-0.145,0.249-0.129,0.394l0.955,8.684
	c0.025,0.23,0.207,0.415,0.438,0.441s0.451-0.11,0.529-0.33l3.05-8.59c0.055-0.15,0.032-0.318-0.059-0.451
	c-0.092-0.131-0.24-0.211-0.401-0.215L239.377,102.898L239.377,102.898z M239.377,102.898l-0.491,0.096l2.355,12.047l-4.329-3.709
	l2.936-8.268L239.377,102.898l-0.491,0.096L239.377,102.898l-0.471-0.168l-3.051,8.59c-0.068,0.194-0.011,0.412,0.146,0.547
	l5.68,4.869c0.162,0.138,0.394,0.158,0.577,0.051c0.184-0.106,0.28-0.318,0.239-0.527l-2.631-13.458
	c-0.043-0.221-0.229-0.386-0.453-0.403c-0.225-0.016-0.434,0.12-0.508,0.332L239.377,102.898L239.377,102.898z M242.008,116.355
	l-0.453-0.212l-3.027,6.466l-1.504-9.865l4.658,3.992L242.008,116.355l-0.453-0.212L242.008,116.355l0.325-0.379l-5.681-4.869
	c-0.158-0.135-0.386-0.158-0.568-0.057c-0.182,0.102-0.283,0.307-0.251,0.512l1.954,12.827c0.035,0.218,0.205,0.388,0.424,0.419
	c0.218,0.032,0.431-0.083,0.523-0.283l3.726-7.957c0.096-0.205,0.044-0.445-0.127-0.592L242.008,116.355L242.008,116.355z
	 M242.008,116.355l-0.491-0.097l-1.54,7.742l-0.945-0.106l3.429-7.326L242.008,116.355l-0.491-0.097L242.008,116.355l-0.453-0.212
	l-3.725,7.959c-0.068,0.146-0.063,0.316,0.016,0.456c0.079,0.141,0.223,0.235,0.381,0.252l2.096,0.234
	c0.258,0.029,0.495-0.145,0.546-0.399l1.63-8.192c0.049-0.248-0.095-0.493-0.335-0.572s-0.501,0.034-0.608,0.263L242.008,116.355
	L242.008,116.355z M240.378,124.549l-0.47-0.175l-1.516,4.071l0.34-3.578l1.59,0.178L240.378,124.549l-0.47-0.175L240.378,124.549
	l0.055-0.497l-2.095-0.233c-0.133-0.016-0.268,0.023-0.371,0.108c-0.104,0.084-0.17,0.207-0.182,0.34l-0.745,7.865
	c-0.024,0.249,0.142,0.478,0.386,0.534c0.244,0.056,0.493-0.078,0.58-0.313l2.84-7.63c0.054-0.145,0.038-0.306-0.042-0.436
	c-0.081-0.131-0.218-0.219-0.371-0.235L240.378,124.549L240.378,124.549z M240.378,124.549l-0.497,0.059l0.937,8.004l-2.624-0.763
	l2.652-7.126L240.378,124.549l-0.497,0.059L240.378,124.549l-0.47-0.175l-2.84,7.63c-0.049,0.131-0.041,0.275,0.022,0.398
	c0.062,0.125,0.173,0.217,0.308,0.256l3.864,1.123c0.16,0.047,0.335,0.011,0.462-0.098c0.128-0.107,0.193-0.273,0.174-0.439
	l-1.024-8.754c-0.026-0.229-0.207-0.41-0.437-0.438c-0.229-0.026-0.447,0.106-0.529,0.322L240.378,124.549L240.378,124.549z
	 M237.538,132.179l-0.344-0.362l-1.677,1.592c-0.153,0.146-0.198,0.373-0.112,0.566c0.088,0.194,0.287,0.313,0.5,0.294l5.539-0.468
	c0.241-0.021,0.433-0.209,0.456-0.449c0.024-0.24-0.126-0.462-0.357-0.529l-3.865-1.123c-0.17-0.051-0.354-0.006-0.483,0.117
	L237.538,132.179l-0.139,0.479l1.278,0.373l-1.438,0.121l0.644-0.611L237.538,132.179l-0.139,0.479L237.538,132.179L237.538,132.179
	z M228.761,84.079l-0.435-0.247l-2.398,4.2l-2.313-1.568l5.314-1.914L228.761,84.079l-0.435-0.247L228.761,84.079l-0.17-0.47
	l-6.239,2.247c-0.178,0.063-0.304,0.222-0.326,0.407c-0.024,0.188,0.06,0.371,0.215,0.477l3.574,2.423
	c0.114,0.078,0.258,0.104,0.394,0.073c0.135-0.031,0.252-0.118,0.321-0.239l2.666-4.67c0.104-0.183,0.082-0.409-0.053-0.569
	c-0.135-0.161-0.354-0.221-0.552-0.148L228.761,84.079L228.761,84.079z M222.522,86.326l-0.48-0.14l-4.389,15.063
	c-0.069,0.239,0.047,0.493,0.274,0.596s0.496,0.021,0.629-0.19l7.962-12.639c0.145-0.229,0.081-0.528-0.143-0.68l-3.573-2.424
	c-0.133-0.09-0.3-0.11-0.451-0.056c-0.149,0.054-0.265,0.177-0.31,0.33L222.522,86.326l-0.281,0.414l3.174,2.152l-5.805,9.212
	l3.392-11.638L222.522,86.326l-0.281,0.414L222.522,86.326L222.522,86.326z M216.468,88.947l-0.495,0.066l1.664,12.441
	c0.031,0.234,0.223,0.414,0.458,0.432c0.236,0.018,0.451-0.131,0.519-0.357l4.388-15.063c0.054-0.188-0.003-0.387-0.149-0.516
	c-0.146-0.129-0.351-0.16-0.529-0.084l-6.054,2.621c-0.204,0.09-0.325,0.305-0.296,0.525L216.468,88.947l0.199,0.459l5.075-2.198
	l-3.428,11.769l-1.351-10.096L216.468,88.947l0.199,0.459L216.468,88.947L216.468,88.947z M226.095,88.75l-0.5-0.029l-0.803,13.729
	l-5.863-1.387l7.589-12.047L226.095,88.75l-0.5-0.029L226.095,88.75l-0.424-0.268l-7.961,12.639
	c-0.087,0.138-0.103,0.307-0.04,0.457c0.061,0.149,0.189,0.26,0.348,0.297l7.123,1.685c0.145,0.035,0.295,0.004,0.414-0.085
	s0.191-0.224,0.201-0.372l0.838-14.324c0.014-0.228-0.13-0.436-0.348-0.505c-0.217-0.07-0.453,0.017-0.575,0.209L226.095,88.75
	L226.095,88.75z M225.256,103.074l-0.5-0.01l-0.194,10.779l-5.534-11.73l6.113,1.446L225.256,103.074l-0.5-0.01L225.256,103.074
	l0.115-0.487l-7.123-1.685c-0.188-0.045-0.383,0.022-0.504,0.172c-0.12,0.148-0.146,0.354-0.064,0.527l6.891,14.605
	c0.101,0.21,0.33,0.324,0.559,0.275c0.227-0.049,0.39-0.248,0.395-0.479l0.232-12.92c0.005-0.236-0.155-0.441-0.385-0.496
	L225.256,103.074L225.256,103.074z M229.633,112.576l0.454-0.209l-4.376-9.502c-0.116-0.252-0.413-0.361-0.664-0.246
	s-0.36,0.412-0.245,0.664l4.207,9.134l-3.467,2.569l0.171-9.531l3.468,7.335c0.117,0.249,0.415,0.355,0.664,0.239
	c0.248-0.115,0.356-0.412,0.242-0.662L229.633,112.576l0.452-0.213l-4.382-9.268c-0.098-0.211-0.329-0.324-0.557-0.275
	c-0.227,0.049-0.391,0.248-0.395,0.479l-0.229,12.685c-0.004,0.19,0.103,0.367,0.271,0.453c0.168,0.088,0.374,0.07,0.525-0.043
	l4.61-3.417c0.19-0.141,0.255-0.395,0.156-0.61l-4.376-9.502c-0.116-0.252-0.413-0.361-0.664-0.246s-0.36,0.412-0.245,0.664
	l4.377,9.502L229.633,112.576l0.452-0.213L229.633,112.576L229.633,112.576z M229.633,112.576l-0.467-0.18l-1.993,5.193
	l-1.405-1.526l4.163-3.086L229.633,112.576l-0.467-0.18L229.633,112.576l-0.298-0.401l-4.609,3.417
	c-0.112,0.084-0.187,0.214-0.2,0.355c-0.013,0.14,0.034,0.281,0.131,0.385l2.326,2.529c0.118,0.127,0.293,0.185,0.463,0.151
	s0.311-0.149,0.373-0.312l2.281-5.945c0.079-0.208,0.012-0.443-0.164-0.578c-0.177-0.134-0.422-0.135-0.601-0.003L229.633,112.576
	L229.633,112.576z M227.351,118.521l0.368-0.339l-2.328-2.528c-0.129-0.141-0.329-0.194-0.512-0.14
	c-0.184,0.056-0.32,0.212-0.35,0.401l-1.91,12.172c-0.038,0.249,0.113,0.486,0.354,0.557c0.242,0.071,0.497-0.048,0.599-0.279
	l4.236-9.643c0.08-0.182,0.045-0.393-0.09-0.54L227.351,118.521l-0.457-0.201l-2.688,6.119l1.152-7.346l1.625,1.768L227.351,118.521
	l-0.457-0.201L227.351,118.521L227.351,118.521z M223.114,128.165l0.494,0.077l1.91-12.172c0.038-0.242-0.107-0.478-0.341-0.553
	c-0.233-0.074-0.489,0.031-0.601,0.251l-6.426,12.733c-0.082,0.165-0.068,0.361,0.038,0.513c0.107,0.151,0.287,0.231,0.472,0.208
	l4.516-0.563c0.222-0.026,0.398-0.197,0.432-0.418L223.114,128.165l-0.061-0.496l-3.586,0.446l4.57-9.057l-1.418,9.029
	L223.114,128.165l-0.061-0.496L223.114,128.165L223.114,128.165z M218.598,128.727l0.063,0.496l3.502-0.436l-1.018,1.715
	l-2.199-2.135L218.598,128.727l0.063,0.496L218.598,128.727l-0.348,0.359l2.654,2.574c0.109,0.106,0.262,0.156,0.414,0.137
	c0.151-0.02,0.284-0.108,0.363-0.24l1.862-3.137c0.098-0.164,0.093-0.369-0.011-0.529c-0.105-0.16-0.291-0.246-0.48-0.222
	l-4.518,0.562c-0.19,0.023-0.351,0.154-0.411,0.338c-0.063,0.183-0.013,0.383,0.126,0.518L218.598,128.727L218.598,128.727z
	 M218.598,128.727l-0.348,0.359l2.162,2.099l-3.406,1.83l2.039-4.063L218.598,128.727l-0.348,0.359L218.598,128.727l-0.447-0.224
	l-2.746,5.476c-0.099,0.195-0.059,0.432,0.098,0.583c0.156,0.152,0.395,0.185,0.585,0.082l5.401-2.901
	c0.14-0.075,0.236-0.215,0.258-0.371c0.022-0.158-0.032-0.318-0.146-0.428l-2.654-2.576c-0.113-0.11-0.274-0.16-0.432-0.133
	c-0.156,0.025-0.292,0.127-0.363,0.269L218.598,128.727L218.598,128.727z M221.252,131.302l-0.477,0.151l0.721,2.25h-3.658
	l3.65-1.961L221.252,131.302l-0.477,0.151L221.252,131.302l-0.237-0.44l-5.401,2.901c-0.201,0.109-0.304,0.34-0.248,0.562
	c0.057,0.224,0.256,0.379,0.485,0.379h6.332c0.16,0,0.31-0.075,0.404-0.205c0.095-0.131,0.121-0.295,0.071-0.447l-0.931-2.902
	c-0.045-0.142-0.151-0.256-0.288-0.311c-0.139-0.057-0.293-0.047-0.425,0.023L221.252,131.302L221.252,131.302z M190.581,89.697
	l-0.026,0.499l11.611,0.601l-5.99,6.592L191,89.424L190.581,89.697l-0.026,0.499L190.581,89.697l-0.42,0.271l5.529,8.509
	c0.084,0.13,0.225,0.214,0.379,0.226c0.154,0.013,0.306-0.047,0.41-0.161l7.137-7.854c0.129-0.142,0.164-0.348,0.092-0.525
	c-0.073-0.179-0.244-0.3-0.437-0.31l-12.665-0.655c-0.188-0.01-0.365,0.087-0.459,0.25s-0.089,0.364,0.014,0.521L190.581,89.697
	L190.581,89.697z M196.11,98.206l0.369,0.336l5.926-6.522l-2.576,13.01l-3.267-7.035L196.11,98.206l0.369,0.336L196.11,98.206
	l-0.455,0.21l3.912,8.426c0.09,0.195,0.299,0.313,0.514,0.286c0.214-0.026,0.389-0.188,0.43-0.399l3.225-16.279
	c0.045-0.221-0.063-0.442-0.265-0.544c-0.201-0.101-0.444-0.056-0.595,0.11l-7.137,7.854c-0.135,0.148-0.168,0.365-0.084,0.547
	L196.11,98.206L196.11,98.206z M196.11,98.206l0.418-0.273L191,89.424c-0.134-0.204-0.394-0.283-0.618-0.186
	s-0.346,0.342-0.286,0.579l3.106,12.534c0.05,0.196,0.211,0.344,0.412,0.374c0.199,0.03,0.398-0.063,0.502-0.237l2.422-4.025
	c0.099-0.164,0.095-0.37-0.01-0.53L196.11,98.206l-0.43-0.259l-1.798,2.99l-2.101-8.476l3.908,6.016L196.11,98.206l-0.43-0.259
	L196.11,98.206L196.11,98.206z M200.02,106.632l0.454-0.211l-3.912-8.427c-0.077-0.168-0.241-0.278-0.426-0.288
	c-0.185-0.011-0.36,0.083-0.456,0.241l-2.421,4.026c-0.136,0.226-0.074,0.517,0.144,0.668l6.332,4.4
	c0.187,0.129,0.434,0.118,0.607-0.028c0.173-0.146,0.227-0.388,0.132-0.593L200.02,106.632l0.285-0.411l-5.947-4.133l1.694-2.818
	l3.515,7.572L200.02,106.632l0.285-0.411L200.02,106.632L200.02,106.632z M193.687,102.23l-0.284,0.411l5.797,4.028l-3.008,2.543
	l-2.023-7.118L193.687,102.23l-0.284,0.411L193.687,102.23l-0.48,0.137l2.235,7.865c0.047,0.163,0.172,0.291,0.334,0.342
	c0.164,0.05,0.34,0.013,0.469-0.098l4.099-3.464c0.118-0.101,0.185-0.25,0.176-0.405c-0.007-0.154-0.086-0.299-0.214-0.387
	l-6.332-4.4c-0.174-0.121-0.404-0.119-0.576,0.004s-0.248,0.341-0.19,0.543L193.687,102.23L193.687,102.23z M195.922,110.096
	l0.322,0.381l3.257-2.752l-0.134,7.6l-3.008-5.47L195.922,110.096l0.322,0.381L195.922,110.096l-0.438,0.24l3.912,7.115
	c0.108,0.199,0.338,0.3,0.557,0.244c0.221-0.054,0.377-0.25,0.381-0.476l0.186-10.58c0.003-0.196-0.107-0.376-0.285-0.46
	s-0.388-0.057-0.537,0.07l-4.098,3.464c-0.183,0.153-0.23,0.413-0.115,0.622L195.922,110.096L195.922,110.096z M199.834,117.211
	l0.438-0.241l-3.912-7.115c-0.113-0.206-0.354-0.306-0.58-0.239c-0.226,0.067-0.373,0.283-0.355,0.518l1.001,13.225
	c0.017,0.226,0.185,0.412,0.407,0.453c0.223,0.042,0.445-0.072,0.543-0.275l2.91-6.109c0.068-0.145,0.063-0.314-0.014-0.456
	L199.834,117.211l-0.452-0.215l-2.103,4.412l-0.685-9.051l2.802,5.094L199.834,117.211l-0.452-0.215L199.834,117.211
	L199.834,117.211z M196.924,123.32l0.451,0.215l2.542-5.336l1.741,2.476l-4.938,2.188L196.924,123.32l0.451,0.215L196.924,123.32
	l0.202,0.457l5.493-2.436c0.139-0.061,0.24-0.179,0.281-0.323c0.039-0.145,0.012-0.299-0.074-0.421l-2.584-3.675
	c-0.102-0.146-0.274-0.226-0.45-0.21c-0.177,0.015-0.333,0.123-0.41,0.283l-2.91,6.108c-0.09,0.189-0.053,0.413,0.093,0.563
	c0.147,0.15,0.369,0.193,0.562,0.109L196.924,123.32L196.924,123.32z M196.924,123.32l0.202,0.457l4.896-2.17l0.995,6.654
	l-5.754-5.311L196.924,123.32l0.202,0.457L196.924,123.32l-0.339,0.366l6.798,6.273c0.156,0.144,0.385,0.174,0.573,0.073
	c0.188-0.099,0.292-0.305,0.26-0.516l-1.304-8.707c-0.023-0.152-0.117-0.289-0.254-0.363c-0.135-0.075-0.301-0.082-0.443-0.02
	l-5.494,2.436c-0.154,0.067-0.263,0.209-0.291,0.375c-0.027,0.166,0.031,0.334,0.155,0.448L196.924,123.32L196.924,123.32z
	 M203.722,129.593l0.339-0.368l-6.798-6.273c-0.128-0.116-0.31-0.16-0.478-0.112c-0.166,0.048-0.297,0.181-0.344,0.349
	l-3.725,13.575c-0.057,0.202,0.021,0.419,0.193,0.54c0.171,0.121,0.4,0.123,0.574,0.003l10.522-7.303
	c0.124-0.086,0.203-0.224,0.213-0.376c0.011-0.151-0.048-0.299-0.159-0.402L203.722,129.593l-0.285-0.411l-9.392,6.518l3.143-11.455
	l6.195,5.716L203.722,129.593l-0.285-0.411L203.722,129.593L203.722,129.593z M193.2,136.895l0.285,0.411l9.432-6.546l-1.268,5.098
	l-8.481,0.538L193.2,136.895l0.285,0.411L193.2,136.895l0.031,0.499l8.846-0.562c0.218-0.014,0.401-0.167,0.455-0.379l1.676-6.74
	c0.05-0.202-0.03-0.414-0.201-0.532c-0.172-0.118-0.398-0.118-0.569,0.001l-10.522,7.303c-0.186,0.129-0.262,0.362-0.188,0.574
	c0.074,0.213,0.279,0.35,0.504,0.335L193.2,136.895L193.2,136.895z M188.292,33.371l0.493-0.082l-0.354-2.13
	c-0.024-0.148-0.114-0.277-0.244-0.352s-0.286-0.087-0.427-0.034l-6.462,2.456c-0.229,0.087-0.362,0.329-0.312,0.569
	c0.049,0.241,0.268,0.409,0.513,0.397l6.817-0.325c0.142-0.007,0.274-0.074,0.364-0.185c0.089-0.111,0.127-0.255,0.104-0.396
	L188.292,33.371l-0.024-0.499l-3.676,0.175l2.953-1.122l0.253,1.528L188.292,33.371l-0.024-0.499L188.292,33.371L188.292,33.371z
	 M187.938,31.241l-0.178-0.468l-5.745,2.183l0.065-1.215h5.857V31.241l-0.178-0.468L187.938,31.241v-0.5h-6.332
	c-0.266,0-0.486,0.208-0.5,0.474l-0.13,2.455c-0.009,0.169,0.069,0.331,0.205,0.431s0.313,0.123,0.472,0.063l6.463-2.456
	c0.226-0.086,0.357-0.32,0.314-0.558c-0.044-0.238-0.251-0.41-0.492-0.41V31.241L187.938,31.241z M187.938,31.241v-0.5h-5.168
	l2.652-2.794l2.085,3.547L187.938,31.241v-0.5V31.241l0.432-0.253l-2.422-4.12c-0.08-0.135-0.217-0.225-0.373-0.243
	s-0.313,0.039-0.42,0.152l-3.912,4.12c-0.137,0.144-0.176,0.358-0.097,0.542c0.079,0.183,0.261,0.303,0.46,0.303h6.332
	c0.178,0,0.346-0.097,0.434-0.252c0.09-0.155,0.088-0.348-0.002-0.501L187.938,31.241L187.938,31.241z M187.938,31.241l0.432-0.253
	l-1.859-3.164l5.878,1.144l-4.632,1.807L187.938,31.241l0.432-0.253L187.938,31.241l0.182,0.466l6.24-2.435
	c0.205-0.081,0.336-0.29,0.315-0.51c-0.021-0.221-0.185-0.404-0.403-0.446l-8.66-1.685c-0.191-0.037-0.39,0.042-0.504,0.202
	c-0.113,0.16-0.121,0.373-0.021,0.542l2.421,4.12c0.124,0.212,0.383,0.302,0.612,0.212L187.938,31.241L187.938,31.241z
	 M194.177,28.807l0.095-0.491l-3.888-0.756l2.394-1.383l0.924,2.788L194.177,28.807l0.095-0.491L194.177,28.807l0.476-0.158
	l-1.119-3.37c-0.047-0.143-0.155-0.257-0.297-0.31c-0.14-0.053-0.297-0.041-0.428,0.034l-4.082,2.358
	c-0.181,0.104-0.277,0.31-0.242,0.516c0.033,0.206,0.192,0.369,0.396,0.408l5.2,1.012c0.174,0.034,0.354-0.028,0.471-0.161
	c0.117-0.133,0.155-0.32,0.101-0.488L194.177,28.807L194.177,28.807z M194.177,28.807l0.476-0.158l-0.986-2.972l4.916-2.65
	l-4.781,5.449L194.177,28.807l0.476-0.158L194.177,28.807l0.376,0.33l6.612-7.537c0.159-0.182,0.165-0.453,0.015-0.641
	c-0.15-0.189-0.416-0.244-0.629-0.129l-7.729,4.166c-0.215,0.116-0.314,0.367-0.237,0.598l1.116,3.371
	c0.058,0.169,0.201,0.297,0.377,0.333c0.175,0.036,0.356-0.026,0.475-0.16L194.177,28.807L194.177,28.807z M196.924,23.354
	l-0.237-0.44l-3.049,1.644l0.437-4.984l2.42,4.038L196.924,23.354l-0.237-0.44L196.924,23.354l0.429-0.257l-3.213-5.36
	c-0.11-0.185-0.33-0.278-0.541-0.23c-0.21,0.048-0.366,0.228-0.386,0.443l-0.652,7.443c-0.016,0.183,0.07,0.361,0.225,0.461
	c0.152,0.101,0.35,0.11,0.512,0.023l3.863-2.083c0.121-0.065,0.209-0.175,0.246-0.308s0.017-0.271-0.054-0.39L196.924,23.354
	L196.924,23.354z M200.79,21.271l0.332-0.374l-9.033-8.051c-0.173-0.155-0.432-0.169-0.621-0.035s-0.262,0.382-0.174,0.598
	l1.956,4.775c0.047,0.116,0.138,0.211,0.252,0.264l7.077,3.277c0.225,0.104,0.492,0.027,0.629-0.18
	c0.135-0.207,0.099-0.483-0.086-0.647L200.79,21.271l0.21-0.454l-6.899-3.194l-1.061-2.59l7.417,6.611L200.79,21.271l0.21-0.454
	L200.79,21.271L200.79,21.271z M200.79,21.271l0.21-0.454l-7.078-3.276c-0.198-0.092-0.435-0.044-0.581,0.119
	s-0.17,0.403-0.057,0.591l3.211,5.36c0.138,0.229,0.432,0.31,0.666,0.183l3.865-2.083c0.168-0.09,0.269-0.266,0.262-0.456
	c-0.004-0.189-0.116-0.358-0.288-0.438L200.79,21.271l-0.238-0.44l-3.443,1.856l-2.133-3.557l5.604,2.595L200.79,21.271l-0.238-0.44
	L200.79,21.271L200.79,21.271z M200.79,21.271l0.332-0.374l-2.254-2.009l2.043-2.442l-0.617,4.76L200.79,21.271l0.332-0.374
	L200.79,21.271l0.496,0.064l0.838-6.46c0.027-0.22-0.092-0.433-0.297-0.522c-0.202-0.089-0.44-0.033-0.584,0.137l-3.452,4.129
	c-0.175,0.207-0.151,0.514,0.051,0.694l2.615,2.332c0.138,0.123,0.334,0.16,0.507,0.095c0.174-0.065,0.298-0.221,0.322-0.404
	L200.79,21.271L200.79,21.271z M200.79,21.271l0.496,0.064l0.757-5.838l1.61,0.594l-3.279,4.902L200.79,21.271l0.496,0.064
	L200.79,21.271l0.414,0.278l3.633-5.43c0.085-0.128,0.107-0.287,0.061-0.433c-0.049-0.146-0.16-0.262-0.304-0.315l-2.793-1.029
	c-0.144-0.053-0.302-0.038-0.433,0.042c-0.129,0.078-0.217,0.212-0.236,0.363l-0.838,6.46c-0.03,0.23,0.102,0.451,0.32,0.532
	c0.218,0.082,0.461,0.003,0.59-0.19L200.79,21.271L200.79,21.271z M201.627,14.811l-0.385-0.321l-1.754,2.097l-0.233-2.4
	l2.149,1.072L201.627,14.811l-0.385-0.321L201.627,14.811l0.223-0.448l-2.957-1.475c-0.162-0.081-0.357-0.068-0.506,0.036
	c-0.15,0.103-0.232,0.279-0.215,0.46l0.438,4.487c0.02,0.201,0.157,0.369,0.351,0.429c0.192,0.06,0.401-0.001,0.53-0.157l2.52-3.012
	c0.1-0.118,0.139-0.272,0.105-0.423c-0.03-0.15-0.129-0.276-0.266-0.345L201.627,14.811L201.627,14.811z M201.627,14.811
	l0.223-0.448l-2.497-1.245l0.847-1.582l0.945,3.408L201.627,14.811l0.223-0.448L201.627,14.811l0.48-0.134l-1.279-4.611
	c-0.055-0.196-0.225-0.341-0.428-0.363c-0.201-0.022-0.399,0.082-0.496,0.261l-1.676,3.136c-0.063,0.12-0.076,0.259-0.035,0.388
	c0.041,0.129,0.133,0.235,0.254,0.296l2.957,1.475c0.176,0.088,0.388,0.064,0.541-0.062c0.151-0.126,0.215-0.33,0.162-0.52
	L201.627,14.811L201.627,14.811z M198.67,13.335l0.441,0.236l1.676-3.136c0.068-0.128,0.078-0.281,0.025-0.416
	c-0.052-0.135-0.162-0.242-0.298-0.291l-3.259-1.17c-0.184-0.066-0.387-0.02-0.523,0.118c-0.138,0.138-0.182,0.342-0.115,0.525
	l1.584,4.306c0.067,0.186,0.236,0.313,0.435,0.327c0.197,0.014,0.382-0.089,0.476-0.263L198.67,13.335l0.469-0.172l-1.213-3.302
	l1.706,0.613l-1.403,2.625L198.67,13.335l0.469-0.172L198.67,13.335L198.67,13.335z M200.346,10.199l0.169-0.471l-2.856-1.026
	l0.248-1.313l2.021,3.084L200.346,10.199l0.169-0.471L200.346,10.199l0.418-0.274l-2.699-4.119c-0.113-0.17-0.316-0.256-0.517-0.216
	s-0.356,0.197-0.394,0.397l-0.559,2.949c-0.046,0.242,0.09,0.48,0.322,0.563l3.259,1.17c0.202,0.072,0.429,0.007,0.562-0.161
	s0.144-0.404,0.025-0.584L200.346,10.199L200.346,10.199z M204.42,15.84l0.173-0.469l-2.175-0.802l1.865-2.585l-0.36,3.809
	L204.42,15.84l0.173-0.469L204.42,15.84l0.498,0.047l0.535-5.641c0.021-0.224-0.111-0.436-0.321-0.515
	c-0.211-0.08-0.45-0.007-0.582,0.175l-3.329,4.611c-0.092,0.127-0.118,0.289-0.072,0.438c0.045,0.15,0.157,0.269,0.305,0.323
	l2.793,1.03c0.146,0.054,0.309,0.037,0.44-0.046s0.216-0.221,0.231-0.376L204.42,15.84L204.42,15.84z M204.957,10.199l-0.044,0.498
	l0.922,0.082l-0.572,1.484l0.191-2.017L204.957,10.199l-0.044,0.498L204.957,10.199l-0.498-0.047l-0.535,5.641
	c-0.024,0.25,0.139,0.477,0.383,0.534s0.491-0.073,0.581-0.307l2.118-5.5c0.057-0.146,0.041-0.311-0.042-0.444
	s-0.223-0.22-0.38-0.233L205,9.701c-0.273-0.024-0.516,0.177-0.542,0.451L204.957,10.199L204.957,10.199z M206.54,10.34l0.044-0.498
	l-0.818-0.073l0.45-0.815l-0.172,1.321L206.54,10.34l0.044-0.498L206.54,10.34l0.496,0.064l0.512-3.932
	c0.031-0.238-0.112-0.465-0.34-0.54c-0.229-0.075-0.477,0.023-0.594,0.233l-2.096,3.792c-0.082,0.147-0.083,0.328-0.004,0.477
	c0.08,0.149,0.229,0.248,0.398,0.263l1.582,0.141c0.268,0.023,0.506-0.167,0.541-0.434L206.54,10.34L206.54,10.34z M206.54,10.34
	l0.496,0.064l0.479-3.681l0.641-0.353l-2.054,3.729L206.54,10.34l0.496,0.064L206.54,10.34l0.438,0.241l2.887-5.243
	c0.107-0.194,0.072-0.438-0.084-0.595c-0.158-0.157-0.401-0.191-0.596-0.084l-2.375,1.311c-0.139,0.077-0.232,0.216-0.254,0.373
	l-0.512,3.933c-0.031,0.238,0.111,0.465,0.34,0.54s0.479-0.024,0.594-0.234L206.54,10.34L206.54,10.34z M209.426,5.097l-0.242-0.438
	l-1.64,0.905l-0.022-2.779l1.471,2.561L209.426,5.097l-0.242-0.438L209.426,5.097l0.434-0.249l-2.422-4.213
	c-0.113-0.198-0.344-0.293-0.563-0.233c-0.22,0.06-0.371,0.259-0.369,0.486l0.046,5.524c0.002,0.175,0.096,0.339,0.248,0.428
	c0.15,0.088,0.34,0.09,0.494,0.006l2.374-1.311c0.116-0.065,0.204-0.175,0.239-0.303c0.037-0.129,0.02-0.268-0.047-0.384
	L209.426,5.097L209.426,5.097z M174.661,34.021l0.431,0.253l2.421-4.119c0.1-0.169,0.09-0.382-0.023-0.542
	c-0.112-0.16-0.311-0.239-0.504-0.202l-8.66,1.686c-0.217,0.042-0.381,0.225-0.401,0.446s0.108,0.43,0.315,0.511l6.239,2.434
	c0.229,0.09,0.488,0,0.613-0.212L174.661,34.021l0.181-0.466l-4.631-1.807l5.878-1.144l-1.86,3.164L174.661,34.021l0.181-0.466
	L174.661,34.021L174.661,34.021z M168.421,31.587l0.095,0.491l5.2-1.012c0.205-0.04,0.362-0.203,0.397-0.408
	c0.035-0.206-0.063-0.412-0.242-0.516l-4.084-2.358c-0.129-0.075-0.287-0.088-0.428-0.035c-0.14,0.054-0.25,0.167-0.297,0.31
	l-1.117,3.371c-0.056,0.168-0.018,0.354,0.1,0.487c0.117,0.133,0.297,0.194,0.471,0.161L168.421,31.587l0.474,0.157l0.924-2.788
	l2.395,1.383l-3.889,0.757L168.421,31.587l0.474,0.157L168.421,31.587L168.421,31.587z M168.421,31.587l0.474,0.157l1.117-3.37
	c0.077-0.231-0.023-0.482-0.236-0.598l-7.729-4.167c-0.213-0.114-0.478-0.06-0.629,0.129c-0.15,0.189-0.144,0.459,0.016,0.641
	l6.612,7.537c0.117,0.135,0.3,0.196,0.475,0.161c0.176-0.036,0.319-0.164,0.375-0.333L168.421,31.587l0.375-0.33l-4.78-5.449
	l4.915,2.649l-0.985,2.972L168.421,31.587l0.375-0.33L168.421,31.587L168.421,31.587z M165.673,26.134l-0.237,0.44l3.865,2.083
	c0.161,0.087,0.357,0.078,0.512-0.022c0.153-0.101,0.239-0.279,0.223-0.461l-0.651-7.443c-0.019-0.217-0.174-0.395-0.386-0.444
	c-0.213-0.049-0.43,0.044-0.541,0.23l-3.213,5.36c-0.07,0.118-0.09,0.257-0.053,0.39c0.036,0.132,0.123,0.242,0.244,0.308
	L165.673,26.134l0.429,0.257l2.42-4.038l0.438,4.984l-3.049-1.643L165.673,26.134l0.429,0.257L165.673,26.134L165.673,26.134z
	 M161.809,24.051l0.332,0.373l7.418-6.611l-1.061,2.59l-6.9,3.194L161.809,24.051l0.332,0.373L161.809,24.051l0.21,0.454
	l7.077-3.277c0.114-0.053,0.205-0.147,0.253-0.264l1.955-4.774c0.088-0.215,0.017-0.463-0.174-0.598
	c-0.188-0.134-0.448-0.12-0.621,0.035l-9.033,8.051c-0.185,0.165-0.221,0.441-0.085,0.648c0.135,0.207,0.403,0.283,0.628,0.179
	L161.809,24.051L161.809,24.051z M161.809,24.051l0.21,0.454l5.603-2.594l-2.131,3.557l-3.444-1.856L161.809,24.051l0.21,0.454
	L161.809,24.051l-0.238,0.44l3.865,2.083c0.235,0.126,0.529,0.046,0.666-0.183l3.213-5.36c0.112-0.188,0.09-0.429-0.057-0.591
	c-0.146-0.163-0.383-0.211-0.582-0.12l-7.078,3.276c-0.172,0.08-0.283,0.249-0.289,0.438c-0.006,0.19,0.096,0.365,0.262,0.456
	L161.809,24.051L161.809,24.051z M161.809,24.051l0.332,0.373l2.616-2.331c0.201-0.18,0.224-0.487,0.051-0.694l-3.454-4.128
	c-0.142-0.17-0.381-0.226-0.584-0.137s-0.324,0.302-0.295,0.522l0.838,6.46c0.024,0.183,0.147,0.339,0.321,0.404
	c0.173,0.065,0.369,0.028,0.507-0.095L161.809,24.051l0.495-0.064l-0.617-4.76l2.044,2.442l-2.255,2.009L161.809,24.051l0.495-0.064
	L161.809,24.051L161.809,24.051z M161.809,24.051l0.495-0.064l-0.837-6.46c-0.02-0.15-0.107-0.285-0.236-0.363
	c-0.131-0.079-0.291-0.094-0.433-0.042l-2.794,1.03c-0.145,0.053-0.255,0.168-0.303,0.314c-0.047,0.146-0.025,0.305,0.06,0.433
	l3.632,5.43c0.129,0.193,0.374,0.272,0.592,0.19c0.217-0.082,0.35-0.302,0.319-0.532L161.809,24.051l0.415-0.278l-3.278-4.902
	l1.609-0.593l0.758,5.838L161.809,24.051l0.415-0.278L161.809,24.051L161.809,24.051z M160.971,17.591l-0.384,0.321l2.521,3.012
	c0.129,0.155,0.336,0.216,0.53,0.157c0.193-0.06,0.33-0.228,0.351-0.429l0.437-4.487c0.017-0.181-0.065-0.357-0.215-0.46
	s-0.343-0.117-0.507-0.035l-2.957,1.475c-0.137,0.068-0.233,0.195-0.266,0.345c-0.031,0.15,0.008,0.305,0.106,0.423L160.971,17.591
	l0.223,0.447l2.148-1.071l-0.234,2.4l-1.754-2.097L160.971,17.591l0.223,0.447L160.971,17.591L160.971,17.591z M160.971,17.591
	l0.223,0.447l2.957-1.475c0.121-0.061,0.211-0.167,0.252-0.295c0.043-0.129,0.029-0.268-0.035-0.388l-1.676-3.136
	c-0.096-0.18-0.293-0.284-0.496-0.261c-0.203,0.022-0.371,0.167-0.427,0.363l-1.28,4.611c-0.053,0.19,0.012,0.394,0.164,0.52
	c0.152,0.126,0.364,0.15,0.541,0.062L160.971,17.591l0.48,0.134l0.947-3.408l0.846,1.582l-2.498,1.245L160.971,17.591l0.48,0.134
	L160.971,17.591L160.971,17.591z M163.927,16.116l0.44-0.236l-1.402-2.625l1.706-0.613l-1.213,3.301L163.927,16.116l0.44-0.236
	L163.927,16.116l0.47,0.172l1.582-4.306c0.067-0.183,0.023-0.387-0.113-0.525c-0.138-0.138-0.342-0.184-0.524-0.119l-3.259,1.17
	c-0.137,0.049-0.246,0.156-0.299,0.291c-0.051,0.135-0.041,0.288,0.026,0.416l1.677,3.136c0.092,0.174,0.278,0.277,0.476,0.263
	c0.196-0.014,0.366-0.141,0.435-0.326L163.927,16.116L163.927,16.116z M162.251,12.979l0.169,0.471l3.259-1.17
	c0.231-0.083,0.368-0.322,0.322-0.563l-0.558-2.95c-0.039-0.2-0.194-0.357-0.395-0.397c-0.2-0.04-0.404,0.046-0.516,0.216l-2.7,4.12
	c-0.118,0.179-0.108,0.416,0.024,0.583c0.133,0.168,0.36,0.234,0.563,0.161L162.251,12.979l0.418,0.274l2.022-3.084l0.248,1.313
	l-2.857,1.026L162.251,12.979l0.418,0.274L162.251,12.979L162.251,12.979z M158.177,18.621l0.173,0.469l2.794-1.03
	c0.147-0.054,0.259-0.173,0.306-0.323c0.045-0.15,0.019-0.312-0.073-0.439l-3.329-4.611c-0.132-0.183-0.371-0.254-0.582-0.175
	c-0.21,0.079-0.344,0.291-0.321,0.515l0.535,5.641c0.015,0.154,0.101,0.293,0.231,0.376c0.132,0.083,0.293,0.1,0.439,0.046
	L158.177,18.621l0.498-0.047l-0.362-3.809l1.867,2.585l-2.176,0.802L158.177,18.621l0.498-0.047L158.177,18.621L158.177,18.621z
	 M157.641,12.979l-0.044-0.498l-1.583,0.141c-0.156,0.014-0.297,0.101-0.38,0.233c-0.083,0.134-0.099,0.298-0.042,0.444l2.118,5.5
	c0.09,0.233,0.338,0.364,0.581,0.307c0.244-0.058,0.406-0.285,0.384-0.534l-0.536-5.641c-0.025-0.273-0.268-0.475-0.542-0.451
	L157.641,12.979l-0.497,0.047l0.191,2.017l-0.572-1.484l0.923-0.082L157.641,12.979l-0.497,0.047L157.641,12.979L157.641,12.979z
	 M156.058,13.12l0.045,0.498l1.583-0.141c0.168-0.015,0.318-0.114,0.397-0.263s0.077-0.329-0.005-0.477l-2.094-3.792
	c-0.117-0.21-0.367-0.308-0.595-0.233c-0.228,0.075-0.371,0.302-0.34,0.54l0.512,3.932c0.035,0.267,0.273,0.457,0.541,0.434
	L156.058,13.12l0.496-0.064l-0.172-1.321l0.45,0.815l-0.818,0.072L156.058,13.12l0.496-0.064L156.058,13.12L156.058,13.12z
	 M156.058,13.12l0.496-0.064l-0.512-3.932c-0.021-0.158-0.115-0.296-0.255-0.374l-2.375-1.311c-0.193-0.107-0.438-0.073-0.594,0.084
	c-0.158,0.157-0.192,0.4-0.086,0.595l2.887,5.243c0.117,0.21,0.367,0.309,0.595,0.234s0.371-0.302,0.34-0.54L156.058,13.12
	l0.438-0.241l-2.053-3.729l0.64,0.353l0.479,3.681L156.058,13.12l0.438-0.241L156.058,13.12L156.058,13.12z M153.171,7.877
	l-0.241,0.438l2.374,1.311c0.154,0.084,0.343,0.082,0.494-0.006s0.247-0.252,0.248-0.427l0.047-5.524
	c0.002-0.228-0.149-0.427-0.369-0.487s-0.45,0.036-0.565,0.233l-2.42,4.213c-0.067,0.116-0.084,0.255-0.049,0.384
	c0.036,0.129,0.123,0.239,0.24,0.303L153.171,7.877l0.435,0.249l1.471-2.561l-0.023,2.779l-1.641-0.905L153.171,7.877l0.435,0.249
	L153.171,7.877L153.171,7.877z M181.476,33.696l0.499,0.026l0.131-2.455c0.008-0.17-0.07-0.334-0.21-0.433
	c-0.138-0.099-0.317-0.121-0.476-0.058l-6.946,2.781c-0.228,0.091-0.354,0.331-0.303,0.57c0.052,0.239,0.269,0.405,0.512,0.393
	l6.816-0.325c0.257-0.012,0.462-0.217,0.476-0.473L181.476,33.696l-0.024-0.499l-3.846,0.183l3.459-1.384l-0.089,1.674
	L181.476,33.696l-0.024-0.499L181.476,33.696L181.476,33.696z M174.661,34.021l0.431,0.253l2.223-3.782l2.77,0.819l-5.609,2.246
	L174.661,34.021l0.431,0.253L174.661,34.021l0.185,0.464l6.946-2.781c0.197-0.079,0.324-0.274,0.314-0.487
	c-0.011-0.212-0.154-0.396-0.359-0.456l-4.523-1.339c-0.22-0.065-0.457,0.028-0.572,0.226l-2.423,4.12
	c-0.108,0.185-0.087,0.417,0.052,0.579c0.141,0.163,0.367,0.218,0.565,0.138L174.661,34.021L174.661,34.021z M177.082,29.902
	l-0.097-0.491l-1.485,0.29l0.976-3.599l0.106,3.814L177.082,29.902l-0.097-0.491L177.082,29.902l0.5-0.014l-0.202-7.204
	c-0.006-0.248-0.194-0.453-0.44-0.482c-0.245-0.029-0.477,0.126-0.542,0.366l-2.074,7.646c-0.045,0.166,0,0.345,0.117,0.472
	c0.117,0.126,0.293,0.183,0.461,0.15l2.275-0.443c0.24-0.047,0.411-0.26,0.405-0.505L177.082,29.902L177.082,29.902z
	 M177.082,29.902l0.5-0.014l-0.202-7.204l-0.499,0.014l-0.44,0.238l0.079-0.043l-0.082,0.037l0.003,0.006l0.079-0.043l-0.082,0.037
	c0.015,0.03,0.078,0.219,0.147,0.466c0.249,0.883,0.677,2.671,1.039,4.227c0.363,1.558,0.66,2.886,0.662,2.889l0.486-0.109
	l0.143-0.479l-1.691-0.5L177.082,29.902l0.5-0.014L177.082,29.902l-0.143,0.479l1.691,0.5c0.17,0.05,0.354,0.006,0.483-0.114
	c0.129-0.121,0.186-0.302,0.146-0.475c0-0.001-0.402-1.799-0.842-3.665c-0.221-0.933-0.448-1.881-0.641-2.633
	c-0.096-0.376-0.183-0.703-0.256-0.957c-0.037-0.127-0.07-0.236-0.101-0.328c-0.033-0.095-0.054-0.161-0.103-0.251
	c-0.109-0.203-0.346-0.304-0.568-0.244s-0.377,0.266-0.37,0.497l0.201,7.204c0.006,0.216,0.151,0.404,0.357,0.466L177.082,29.902
	L177.082,29.902z"/>
<g>
	<path fill="#FFFFFF" d="M53.659,109.767H35.412v-7.423h5.489V70.876L30,96.313h-6.34L12.757,70.876v31.468h5.49v7.423H0v-7.423
		h4.871V62.603H0v-7.422h14.69l12.139,29.535l12.758-29.535h14.072v7.422h-4.871v39.741h4.871V109.767z"/>
	<path fill="#FFFFFF" d="M85.436,101.726c0,5.361-2.295,8.041-6.882,8.041H65.719c-4.639,0-6.958-2.68-6.958-8.041V82.628
		c0-5.412,2.319-8.118,6.958-8.118h12.835c4.587,0,6.882,2.706,6.882,8.118V101.726z M77.936,100.721V83.633
		c0-1.441-0.671-2.164-2.011-2.164h-7.577c-1.392,0-2.088,0.723-2.088,2.164v17.088c0,1.392,0.696,2.088,2.088,2.088h7.577
		C77.265,102.809,77.936,102.112,77.936,100.721z"/>
	<path fill="#FFFFFF" d="M119.069,101.726c0,5.361-2.295,8.041-6.882,8.041H99.352c-4.639,0-6.958-2.68-6.958-8.041V82.628
		c0-5.412,2.319-8.118,6.958-8.118h12.835c4.587,0,6.882,2.706,6.882,8.118V101.726z M111.569,100.721V83.633
		c0-1.441-0.671-2.164-2.011-2.164h-7.577c-1.392,0-2.088,0.723-2.088,2.164v17.088c0,1.392,0.696,2.088,2.088,2.088h7.577
		C110.898,102.809,111.569,102.112,111.569,100.721z"/>
	<path fill="#FFFFFF" d="M156.721,109.767h-23.195c-5,0-7.499-2.68-7.499-8.041V82.01c0-4.999,2.665-7.5,7.995-7.5h11.411V62.448
		h-4.562v-7.268h11.906v47.628h3.943V109.767z M145.433,102.809v-21.34h-9.806c-1.401,0-2.102,0.723-2.102,2.164v17.088
		c0,1.392,0.7,2.088,2.102,2.088H145.433z"/>
	<path fill="#FFFFFF" d="M284.601,109.767h-21.107c-3.711,0-6.393-0.747-8.041-2.242c-1.805-1.546-2.706-4.148-2.706-7.81V65.232
		c0-6.7,3.479-10.051,10.438-10.051h21.417v15.772h-7.654v-8.35h-12.68c-2.217,0-3.325,1.109-3.325,3.325v33.246
		c0,2.114,1.108,3.17,3.325,3.17h12.68v-8.582h7.654V109.767z"/>
	<path fill="#FFFFFF" d="M319.857,109.767h-23.813c-3.918,0-5.876-2.069-5.876-6.208v-8.848c0-3.828,2.199-5.742,6.6-5.742h11.802
		v-5.74c0-1.173-0.623-1.76-1.869-1.76h-7.011c-1.143,0-1.713,0.593-1.713,1.777v3.48h-7.113v-5.954
		c0-4.175,2.448-6.263,7.346-6.263h9.587c2.834,0,4.896,0.58,6.186,1.74c1.288,1.159,1.933,3.131,1.933,5.914v20.645h3.943V109.767z
		 M308.569,102.809V95.54h-9.201c-1.236,0-1.855,0.593-1.855,1.778v3.635c0,1.236,0.619,1.855,1.855,1.855H308.569z"/>
	<path fill="#FFFFFF" d="M337.252,109.767h-5.799c-4.639,0-6.958-2.319-6.958-6.958v-21.34h-4.175V74.51h4.175V63.376h7.345V74.51
		h5.412v6.959h-5.412v19.252c0,1.392,0.706,2.088,2.118,2.088h3.294V109.767z"/>
	<path fill="#FFFFFF" d="M365.319,109.767h-16.623c-5.001,0-7.5-2.68-7.5-8.041V82.01c0-4.999,2.654-7.5,7.964-7.5h16.159v11.83
		h-7.036v-4.871h-7.5c-1.392,0-2.087,0.723-2.087,2.164v17.088c0,1.392,0.695,2.088,2.087,2.088h7.5v-4.717h7.036V109.767z"/>
	<path fill="#FFFFFF" d="M402.818,109.767h-11.675V83.788c0-1.083-0.206-1.739-0.618-1.972c-0.413-0.232-0.98-0.348-1.701-0.348
		h-8.118v21.34h4.252v6.958h-16.159v-6.958h4.407v-40.36h-4.175v-7.268h11.675V74.51h9.974c5.309,0,7.964,2.319,7.964,6.959v21.34
		h4.175V109.767z"/>
	<path fill="#FFFFFF" d="M432.507,101.726c0,5.361-2.501,8.041-7.5,8.041h-10.515c-5.001,0-7.5-2.68-7.5-8.041V82.01
		c0-4.999,2.654-7.5,7.964-7.5h9.587c5.309,0,7.964,2.501,7.964,7.5v13.376h-18.015v5.335c0,1.392,0.695,2.088,2.087,2.088h6.649
		c1.186,0,1.881-0.49,2.088-1.47c0-0.051,0-1.03,0-2.938h7.19V101.726z M425.317,88.813V83.61c0-1.428-0.696-2.142-2.088-2.142
		h-6.649c-1.392,0-2.087,0.714-2.087,2.142v5.203H425.317z"/>
	<path fill="#FFFFFF" d="M461.5,88.195h-6.958v-4.639c0-1.393-0.706-2.088-2.116-2.088h-3.761v21.34h4.64v6.958h-16.392v-6.958
		h4.407v-21.34h-4.407V74.51h17.629c4.639,0,6.958,2.319,6.958,6.959V88.195z"/>
</g>
<path fill="#FFFFFF" d="M56.824,104.658v-0.5h-4.371v-38.74h4.871v-8.423H42.423L30.006,85.743L18.191,56.995H2.666v8.423h4.871
	v38.74H2.666v8.424h19.247v-8.424h-5.489V75.627l10.072,23.501h6.999l10.072-23.501v28.531h-5.489v8.424h19.247v-8.424h-0.5V104.658
	h-0.5v6.924H39.077v-6.424h5.489V73.191l-0.959-0.197L32.835,98.128h-5.681L16.382,72.994l-0.959,0.197v31.967h5.489v6.424H3.666
	v-6.424h4.871v-40.74H3.666v-6.423h13.855l12.462,30.323l13.098-30.323h13.243v6.423h-4.871v40.74h5.371V104.658h-0.5H56.824
	L56.824,104.658z M88.601,84.943h0.5c-0.001-2.772-0.584-4.928-1.839-6.412c-1.257-1.488-3.158-2.212-5.543-2.207H68.885
	c-2.41-0.005-4.328,0.717-5.599,2.205c-1.269,1.484-1.859,3.641-1.86,6.414v19.098c0.001,2.746,0.591,4.886,1.862,6.357
	c1.271,1.475,3.188,2.188,5.597,2.184h12.834c2.384,0.005,4.283-0.711,5.541-2.186c1.256-1.472,1.84-3.609,1.841-6.355V84.943
	H88.601h-0.5v19.098c0,2.613-0.563,4.496-1.601,5.705c-1.036,1.205-2.577,1.83-4.781,1.836H68.885
	c-2.23-0.006-3.793-0.631-4.841-1.838c-1.049-1.209-1.618-3.09-1.618-5.703V84.943c-0.001-2.641,0.569-4.543,1.619-5.764
	c1.049-1.219,2.609-1.85,4.84-1.855h12.834c2.203,0.006,3.743,0.635,4.78,1.854c1.038,1.221,1.602,3.125,1.602,5.766H88.601
	L88.601,84.943z M79.091,105.123v-0.5h-7.578c-0.619-0.002-0.987-0.151-1.212-0.375c-0.225-0.225-0.373-0.594-0.375-1.213V85.948
	c0.001-0.647,0.154-1.042,0.382-1.276c0.226-0.234,0.589-0.387,1.205-0.389h7.578c0.586,0.004,0.924,0.15,1.142,0.382
	c0.217,0.232,0.367,0.634,0.368,1.283v17.087c-0.001,0.621-0.149,0.998-0.362,1.219c-0.215,0.221-0.558,0.367-1.147,0.369V105.123
	v0.5c0.749,0.003,1.411-0.2,1.867-0.676c0.456-0.474,0.644-1.143,0.643-1.912V85.948c0-0.793-0.184-1.474-0.636-1.964
	c-0.454-0.49-1.122-0.705-1.874-0.701h-7.578c-0.774-0.002-1.456,0.207-1.925,0.694s-0.663,1.175-0.662,1.971v17.087
	c-0.002,0.772,0.195,1.447,0.668,1.92c0.473,0.471,1.146,0.67,1.919,0.668h7.578V105.123L79.091,105.123z M122.233,84.943h0.5
	c0-2.772-0.582-4.928-1.839-6.412c-1.256-1.488-3.157-2.212-5.542-2.207h-12.834c-2.41-0.005-4.328,0.717-5.599,2.205
	c-1.269,1.484-1.859,3.641-1.86,6.414v19.098c0,2.746,0.592,4.886,1.862,6.357c1.271,1.475,3.188,2.188,5.597,2.184h12.834
	c2.385,0.005,4.283-0.711,5.541-2.186c1.256-1.472,1.84-3.609,1.84-6.355V84.943H122.233h-0.5v19.098
	c0.002,2.613-0.562,4.496-1.6,5.705c-1.036,1.205-2.577,1.83-4.781,1.836h-12.834c-2.23-0.006-3.793-0.631-4.841-1.838
	c-1.049-1.209-1.619-3.09-1.618-5.703V84.943c-0.001-2.641,0.569-4.543,1.619-5.764c1.049-1.219,2.609-1.85,4.84-1.855h12.834
	c2.202,0.006,3.742,0.635,4.78,1.854c1.038,1.221,1.603,3.125,1.601,5.766H122.233L122.233,84.943z M112.723,105.123v-0.5h-7.577
	c-0.618-0.002-0.987-0.151-1.212-0.375c-0.224-0.225-0.373-0.594-0.375-1.213V85.948c0.001-0.647,0.154-1.042,0.383-1.276
	c0.226-0.234,0.588-0.387,1.204-0.389h7.577c0.587,0.004,0.926,0.15,1.143,0.382c0.217,0.232,0.367,0.634,0.369,1.283v17.087
	c-0.002,0.621-0.149,0.998-0.363,1.219c-0.215,0.221-0.557,0.367-1.148,0.369V105.123v0.5c0.75,0.003,1.412-0.2,1.868-0.676
	c0.456-0.474,0.644-1.143,0.644-1.912V85.948c0-0.793-0.185-1.474-0.638-1.964s-1.121-0.705-1.874-0.701h-7.577
	c-0.774-0.002-1.456,0.207-1.925,0.694s-0.663,1.175-0.662,1.971v17.087c-0.002,0.772,0.196,1.447,0.668,1.92
	c0.473,0.472,1.147,0.67,1.919,0.668h7.577V105.123L112.723,105.123z M159.887,105.123v-0.5h-3.443V56.995h-12.906v8.268h4.562
	v11.061h-10.912c-2.737,0-4.878,0.643-6.338,2.012c-1.462,1.369-2.159,3.407-2.157,5.988v19.717c0,2.752,0.642,4.902,2.01,6.371
	c1.369,1.47,3.408,2.173,5.99,2.17h23.695v-7.959h-0.5V105.123h-0.5v6.459h-22.695c-2.418-0.004-4.129-0.641-5.26-1.852
	c-1.132-1.212-1.74-3.08-1.74-5.689V84.324c0.004-2.418,0.637-4.129,1.842-5.26c1.203-1.132,3.061-1.739,5.653-1.74h11.912V64.263
	h-4.562v-6.268h10.906v47.628h4.443V105.123h-0.5H159.887L159.887,105.123z M138.793,105.123v-0.5
	c-0.625-0.002-0.999-0.152-1.225-0.376c-0.226-0.226-0.375-0.593-0.377-1.212V85.948c0.002-0.646,0.155-1.04,0.385-1.275
	c0.228-0.235,0.595-0.388,1.217-0.39h9.306v20.34h-9.306V105.123v0.5h10.306v-22.34h-10.306c-0.78-0.002-1.463,0.206-1.936,0.693
	c-0.472,0.487-0.668,1.176-0.666,1.972v17.087c-0.002,0.773,0.198,1.449,0.672,1.921c0.476,0.471,1.152,0.669,1.93,0.667V105.123
	L138.793,105.123z M287.766,96.076v-0.5h-8.153v8.582h-12.182c-1.035,0-1.721-0.244-2.147-0.653
	c-0.428-0.407-0.674-1.039-0.677-2.017V68.242c0.002-1.031,0.254-1.709,0.685-2.14c0.43-0.43,1.108-0.683,2.14-0.685h12.182v8.35
	h8.653V56.995h-21.917c-3.553-0.001-6.309,0.857-8.175,2.653c-1.867,1.796-2.765,4.468-2.763,7.898v34.482
	c0,1.871,0.229,3.491,0.704,4.861c0.474,1.37,1.198,2.491,2.177,3.328l0.325-0.38l-0.337,0.371c1.799,1.622,4.605,2.368,8.378,2.372
	h21.607V95.576h-0.5V96.076h-0.5v15.506h-20.607c-3.65,0.002-6.204-0.744-7.705-2.113l-0.005-0.005l-0.006-0.004
	c-0.827-0.71-1.455-1.662-1.883-2.896c-0.428-1.231-0.648-2.743-0.648-4.534V67.547c0.003-3.271,0.844-5.625,2.456-7.178
	c1.612-1.555,4.076-2.372,7.481-2.374h20.917v14.772h-6.653v-8.35h-13.182c-1.185-0.002-2.169,0.3-2.847,0.978
	c-0.679,0.679-0.979,1.662-0.978,2.847v33.246c-0.003,1.139,0.305,2.092,0.986,2.74c0.681,0.648,1.657,0.932,2.838,0.93h13.182
	v-8.582h7.153V96.076h-0.5H287.766L287.766,96.076z M323.022,105.123v-0.5h-3.442V84.479c-0.001-2.851-0.656-4.98-2.1-6.285v-0.001
	c-1.434-1.283-3.623-1.866-6.52-1.868h-9.587c-2.516,0.001-4.478,0.533-5.834,1.686c-1.358,1.154-2.017,2.899-2.012,5.078v6.453
	h8.113v-3.979c0.001-0.519,0.123-0.817,0.288-0.987c0.164-0.169,0.434-0.289,0.925-0.291h7.012c0.55,0.001,0.875,0.129,1.058,0.305
	c0.184,0.174,0.308,0.451,0.311,0.955v5.24h-11.302c-2.267,0-4.047,0.49-5.278,1.559c-1.233,1.07-1.826,2.682-1.821,4.684v8.848
	c-0.001,2.143,0.507,3.838,1.605,5c1.1,1.162,2.73,1.712,4.771,1.709h24.313v-7.959h-0.5V105.123h-0.5v6.459h-23.313
	c-1.878-0.004-3.186-0.49-4.044-1.396c-0.86-0.906-1.331-2.316-1.332-4.313v-8.848c0.005-1.824,0.512-3.084,1.478-3.93
	c0.969-0.846,2.489-1.313,4.622-1.313h12.302v-6.24c0.004-0.668-0.185-1.271-0.625-1.684c-0.438-0.412-1.049-0.577-1.743-0.576
	h-7.012c-0.65-0.002-1.237,0.175-1.645,0.598c-0.406,0.424-0.569,1.014-0.568,1.681v2.979h-6.113v-5.453
	c0.006-1.998,0.571-3.384,1.66-4.317c1.093-0.935,2.803-1.446,5.186-1.446h9.587c2.771-0.002,4.707,0.576,5.851,1.611l-0.025-0.023
	l0.025,0.023c1.134,1.015,1.769,2.828,1.769,5.543v21.145h4.442V105.123h-0.5H323.022L323.022,105.123z M302.534,105.123v-0.5
	c-0.542-0.002-0.854-0.133-1.038-0.317c-0.187-0.185-0.316-0.497-0.318-1.039v-3.633c0.003-0.513,0.128-0.798,0.311-0.974
	s0.5-0.305,1.046-0.306h8.7v6.269h-8.7V105.123v0.5h9.7v-8.269h-9.7c-0.692-0.001-1.303,0.167-1.738,0.584
	c-0.437,0.417-0.62,1.022-0.618,1.695v3.633c-0.002,0.696,0.177,1.312,0.611,1.746c0.433,0.433,1.049,0.612,1.745,0.61V105.123
	L302.534,105.123z M340.418,105.123v-0.5h-3.294c-0.631-0.001-1.01-0.153-1.238-0.379c-0.228-0.225-0.378-0.59-0.38-1.209V84.283
	h5.412v-7.959h-5.412V65.191h-8.345v11.133h-4.176v7.959h4.176v20.84c-0.002,2.396,0.602,4.289,1.886,5.572s3.176,1.888,5.572,1.887
	h6.299v-7.959h-0.5V105.123h-0.5v6.459h-5.299c-2.242-0.002-3.829-0.559-4.865-1.594s-1.591-2.623-1.593-4.865v-21.84h-4.176v-5.959
	h4.176V66.191h6.345v11.133h5.412v5.959h-5.412v19.752c-0.002,0.773,0.2,1.451,0.678,1.922c0.479,0.471,1.158,0.668,1.94,0.666
	h3.294V105.123h-0.5H340.418L340.418,105.123z M368.484,100.406v-0.5h-7.535v4.717h-7c-0.619-0.002-0.988-0.151-1.213-0.375
	c-0.224-0.225-0.373-0.594-0.375-1.213V85.948c0.002-0.647,0.154-1.042,0.383-1.276c0.226-0.234,0.589-0.387,1.205-0.389h7v4.871
	h8.035v-12.83h-16.658c-2.729,0-4.861,0.643-6.316,2.012c-1.456,1.369-2.151,3.407-2.148,5.988v19.717
	c-0.001,2.752,0.642,4.902,2.01,6.371c1.369,1.47,3.407,2.173,5.99,2.17h17.123V99.906h-0.5V100.406h-0.5v11.176h-16.123
	c-2.418-0.004-4.129-0.641-5.26-1.852c-1.132-1.212-1.738-3.08-1.74-5.689V84.324c0.004-2.418,0.636-4.13,1.834-5.26
	c1.199-1.132,3.048-1.739,5.631-1.74h15.658v10.83h-6.035v-4.871h-8c-0.775-0.002-1.456,0.207-1.926,0.694
	c-0.469,0.487-0.663,1.175-0.662,1.971v17.087c-0.002,0.772,0.196,1.447,0.668,1.92c0.473,0.472,1.147,0.67,1.92,0.668h8v-4.717
	h6.535V100.406h-0.5H368.484L368.484,100.406z M405.983,105.123v-0.5h-3.675v-20.84c0.005-2.408-0.702-4.322-2.162-5.596
	c-1.459-1.271-3.58-1.862-6.302-1.863h-9.474V56.995h-12.676v8.268h4.176v39.36h-4.407v7.959h17.16v-7.959h-4.253v-20.34h7.617
	c0.67-0.001,1.154,0.111,1.457,0.283l-0.012-0.006l0.011,0.006c0.056,0.029,0.15,0.122,0.232,0.381
	c0.081,0.254,0.133,0.646,0.132,1.155v26.479h12.675v-7.959h-0.5V105.123h-0.5v6.459h-10.675V86.103
	c-0.001-0.573-0.052-1.051-0.178-1.454c-0.124-0.398-0.338-0.75-0.695-0.953l0.012,0.007l-0.013-0.007
	c-0.523-0.292-1.172-0.411-1.946-0.412h-8.617v22.34h4.253v5.959h-15.16v-5.959h4.407v-41.36h-4.176v-6.268h10.676v19.329h10.474
	c2.587,0,4.447,0.568,5.644,1.617c1.194,1.047,1.815,2.611,1.82,4.842v21.84h4.675V105.123h-0.5H405.983L405.983,105.123z
	 M435.673,100.716v-0.5h-7.691v0.5c0,1.908,0,2.887,0,2.938h0.5l-0.488-0.104c-0.088,0.398-0.242,0.628-0.476,0.796
	c-0.235,0.167-0.597,0.276-1.123,0.276h-6.649c-0.619-0.002-0.988-0.151-1.212-0.375c-0.225-0.225-0.373-0.594-0.375-1.213v-4.834
	h18.015V84.324c0.003-2.581-0.693-4.619-2.149-5.988c-1.455-1.369-3.588-2.012-6.314-2.012h-9.587c-2.729,0-4.861,0.643-6.316,2.012
	c-1.456,1.369-2.15,3.407-2.147,5.988v19.717c-0.001,2.752,0.641,4.902,2.009,6.371c1.369,1.47,3.408,2.173,5.991,2.17h10.515
	c2.582,0.003,4.621-0.7,5.99-2.17c1.367-1.469,2.01-3.619,2.01-6.371v-3.825h-0.5V100.716h-0.5v3.325
	c-0.001,2.609-0.609,4.478-1.741,5.689c-1.131,1.211-2.842,1.848-5.259,1.852h-10.515c-2.418-0.004-4.13-0.641-5.261-1.852
	c-1.132-1.212-1.738-3.08-1.739-5.689V84.324c0.003-2.418,0.635-4.13,1.834-5.26c1.198-1.132,3.047-1.739,5.63-1.74h9.587
	c2.582,0.001,4.43,0.608,5.63,1.74c1.199,1.13,1.831,2.842,1.834,5.26v12.877h-18.015v5.834c-0.003,0.772,0.195,1.447,0.668,1.92
	c0.472,0.472,1.146,0.67,1.919,0.668h6.649c0.658,0,1.237-0.135,1.698-0.458c0.462-0.322,0.759-0.826,0.878-1.408l0.011-0.051
	v-0.052c0-0.052,0-1.03,0-2.938h-0.5v0.5h7.191V100.716h-0.5H435.673L435.673,100.716z M417.659,91.129h0.5v-5.203
	c0.001-0.64,0.152-1.027,0.38-1.258c0.225-0.231,0.59-0.383,1.207-0.385h6.649c0.617,0.002,0.982,0.153,1.207,0.385
	c0.227,0.23,0.379,0.618,0.38,1.258v4.703h-10.323V91.129h0.5H417.659v0.5h11.323v-5.703c0.001-0.789-0.193-1.473-0.664-1.956
	c-0.47-0.483-1.148-0.688-1.923-0.687h-6.649c-0.774-0.002-1.453,0.203-1.924,0.687c-0.47,0.483-0.666,1.167-0.663,1.956v5.703h0.5
	V91.129L417.659,91.129z M464.667,83.783h0.5c0.002-2.396-0.604-4.289-1.886-5.572c-1.284-1.283-3.178-1.889-5.573-1.887H439.58
	v7.959h4.406v20.34h-4.406v7.959h17.391v-7.959h-4.639v-20.34h3.261c0.629,0.002,1.007,0.152,1.235,0.378
	c0.228,0.225,0.378,0.592,0.38,1.21v5.139h7.959v-7.227H464.667h-0.5v6.227h-5.959v-4.139c0.002-0.773-0.2-1.451-0.679-1.922
	c-0.477-0.471-1.155-0.668-1.937-0.666h-4.261v22.34h4.639v5.959H440.58v-5.959h4.406v-22.34h-4.406v-5.959h17.128
	c2.243,0.002,3.83,0.558,4.866,1.594c1.034,1.035,1.591,2.623,1.593,4.865H464.667L464.667,83.783z"/>
</svg>
