<?xml version="1.0" encoding="utf-8"?>
<!-- Generator: Adobe Illustrator 16.0.2, SVG Export Plug-In . SVG Version: 6.00 Build 0)  -->
<!DOCTYPE svg PUBLIC "-//W3C//DTD SVG 1.1//EN" "http://www.w3.org/Graphics/SVG/1.1/DTD/svg11.dtd">
<svg version="1.1" id="Слой_1" xmlns="http://www.w3.org/2000/svg" xmlns:xlink="http://www.w3.org/1999/xlink" x="0px" y="0px"
	 width="89.167px" height="104.998px" viewBox="0 0 89.167 104.998" enable-background="new 0 0 89.167 104.998"
	 xml:space="preserve">
<path fill="#4EA392" d="M35.068,63.476l0.499-0.021l-0.473-10.851l19.916-0.948l0.813,9.414l-7.475,13.1L35.392,63.096
	L35.068,63.476l0.499-0.021L35.068,63.476l-0.325,0.38l13.416,11.467c0.113,0.096,0.266,0.138,0.412,0.111
	c0.146-0.024,0.274-0.116,0.348-0.245l7.85-13.759c0.052-0.088,0.073-0.188,0.064-0.29l-0.867-10.05
	c-0.022-0.267-0.253-0.469-0.522-0.456l-20.894,0.995c-0.274,0.013-0.487,0.247-0.475,0.521l0.494,11.349
	c0.006,0.139,0.069,0.268,0.175,0.357L35.068,63.476L35.068,63.476z M55.467,51.133l0.11,0.488l8.166-1.848l-7.029,9.998
	l-0.749-8.682L55.467,51.133l0.11,0.488L55.467,51.133l-0.498,0.043l0.867,10.05c0.018,0.209,0.165,0.385,0.368,0.439
	s0.419-0.023,0.539-0.195l8.563-12.183c0.119-0.169,0.121-0.395,0.006-0.566c-0.114-0.171-0.323-0.255-0.524-0.209l-9.432,2.133
	c-0.243,0.057-0.409,0.281-0.388,0.531L55.467,51.133L55.467,51.133z M34.573,52.128l-0.499,0.021l0.443,10.183L24.305,53.42
	l10.306-0.793L34.573,52.128l-0.499,0.021L34.573,52.128l-0.038-0.498L23.04,52.515c-0.2,0.016-0.373,0.15-0.436,0.341
	s-0.006,0.402,0.146,0.534l11.989,10.463c0.151,0.133,0.365,0.16,0.545,0.073c0.181-0.087,0.292-0.271,0.283-0.472l-0.494-11.348
	c-0.006-0.136-0.067-0.263-0.168-0.353c-0.102-0.09-0.235-0.134-0.37-0.124L34.573,52.128L34.573,52.128z M35.068,63.476
	l-0.325,0.38l12.313,10.523l-11.284-0.49l-0.204-10.423L35.068,63.476l-0.325,0.38L35.068,63.476l-0.5,0.01l0.214,10.893
	c0.005,0.264,0.214,0.478,0.478,0.49l13.202,0.572c0.213,0.01,0.409-0.117,0.487-0.315s0.021-0.425-0.141-0.563L35.392,63.096
	c-0.15-0.129-0.36-0.157-0.538-0.072c-0.179,0.084-0.29,0.265-0.286,0.462L35.068,63.476L35.068,63.476z M48.484,74.942l0.434,0.247
	l7.386-12.944l2.693,5.409L48.216,74.52L48.484,74.942l0.434,0.247L48.484,74.942l0.269,0.422l11.161-7.109
	c0.216-0.137,0.293-0.415,0.179-0.645l-3.311-6.649c-0.083-0.166-0.249-0.272-0.435-0.277c-0.185-0.005-0.355,0.091-0.448,0.252
	l-7.85,13.759c-0.114,0.199-0.077,0.451,0.089,0.61c0.166,0.158,0.42,0.184,0.614,0.06L48.484,74.942L48.484,74.942z M48.484,74.942
	l0.08,0.493l8.849-1.433c0.171-0.028,0.316-0.145,0.383-0.305l2.313-5.677c0.081-0.201,0.024-0.433-0.143-0.571
	c-0.167-0.141-0.406-0.155-0.589-0.038L48.216,74.52c-0.2,0.127-0.284,0.378-0.198,0.601c0.084,0.221,0.313,0.353,0.547,0.314
	L48.484,74.942l0.269,0.422l9.837-6.266l-1.614,3.962l-8.571,1.389L48.484,74.942l0.269,0.422L48.484,74.942L48.484,74.942z
	 M48.484,74.942l-0.476-0.155L41.062,95.98l-5.137-21.084l12.537,0.545L48.484,74.942l-0.476-0.155L48.484,74.942l0.021-0.5
	L35.303,73.87c-0.157-0.008-0.308,0.06-0.408,0.182c-0.099,0.121-0.136,0.283-0.099,0.435l5.709,23.435
	c0.053,0.217,0.243,0.372,0.467,0.381c0.223,0.009,0.425-0.131,0.494-0.344l7.493-22.86c0.049-0.148,0.025-0.311-0.064-0.439
	c-0.089-0.13-0.231-0.208-0.389-0.216L48.484,74.942L48.484,74.942z M57.333,73.508l-0.469,0.176l2.458,6.56l-9.311-5.042
	l7.401-1.199L57.333,73.508l-0.469,0.176L57.333,73.508l-0.08-0.493l-8.849,1.434c-0.211,0.033-0.377,0.198-0.414,0.409
	c-0.035,0.212,0.066,0.421,0.256,0.523l11.774,6.378c0.184,0.099,0.409,0.074,0.567-0.062c0.157-0.138,0.213-0.358,0.139-0.554
	l-2.926-7.811c-0.084-0.224-0.313-0.356-0.548-0.318L57.333,73.508L57.333,73.508z M40.991,97.802l0.325,0.379L60.584,81.7
	c0.126-0.107,0.189-0.269,0.172-0.433c-0.017-0.165-0.113-0.308-0.259-0.387l-11.775-6.378c-0.13-0.071-0.284-0.08-0.423-0.025
	c-0.138,0.056-0.244,0.168-0.29,0.31l-7.493,22.859c-0.07,0.212,0.011,0.447,0.197,0.571s0.433,0.11,0.603-0.036L40.991,97.802
	l0.475,0.155l7.308-22.29l10.607,5.746L40.666,97.422L40.991,97.802l0.475,0.155L40.991,97.802L40.991,97.802z M60.259,81.32
	l-0.489-0.105l-4.726,21.914l-13.11-5.475L60.584,81.7L60.259,81.32l-0.489-0.105L60.259,81.32l-0.325-0.381L40.666,97.422
	c-0.132,0.112-0.196,0.286-0.169,0.457c0.027,0.172,0.141,0.317,0.301,0.384l14.416,6.02c0.137,0.058,0.292,0.051,0.424-0.019
	c0.131-0.067,0.227-0.192,0.257-0.338l4.854-22.501c0.045-0.21-0.049-0.425-0.233-0.535c-0.184-0.109-0.418-0.09-0.581,0.049
	L60.259,81.32L60.259,81.32z M66.825,84.186l0.199-0.458l-6.565-2.867c-0.137-0.06-0.294-0.055-0.428,0.014s-0.229,0.192-0.262,0.34
	l-4.852,22.502c-0.052,0.24,0.078,0.482,0.308,0.571s0.489-0.002,0.613-0.215l11.418-19.636c0.072-0.123,0.087-0.271,0.043-0.405
	c-0.045-0.137-0.144-0.246-0.275-0.304L66.825,84.186l-0.434-0.251l-9.832,16.907l4.06-18.82l6.006,2.622L66.825,84.186
	l-0.434-0.251L66.825,84.186L66.825,84.186z M55.839,104.073l11.418-19.636l-0.865-0.502L54.974,103.57L55.839,104.073z
	 M55.599,103.361L41.184,97.34l-0.386,0.923l14.416,6.02L55.599,103.361z M55.467,51.133l0.493-0.082l-0.542-3.261
	c-0.025-0.148-0.114-0.277-0.244-0.353c-0.13-0.073-0.286-0.087-0.427-0.034l-9.904,3.76c-0.23,0.088-0.363,0.329-0.312,0.569
	c0.05,0.24,0.267,0.409,0.513,0.397l10.447-0.498c0.143-0.006,0.274-0.074,0.364-0.185c0.091-0.111,0.128-0.256,0.104-0.396
	L55.467,51.133l-0.024-0.499l-7.303,0.348l6.393-2.426l0.441,2.659L55.467,51.133l-0.024-0.499L55.467,51.133L55.467,51.133z
	 M54.925,47.873l-0.178-0.469l-9.187,3.487l0.133-2.519h9.231V47.873l-0.178-0.469L54.925,47.873v-0.5h-9.706
	c-0.266,0-0.485,0.208-0.499,0.474l-0.199,3.758c-0.009,0.169,0.068,0.331,0.204,0.432c0.137,0.099,0.315,0.123,0.473,0.063
	l9.904-3.759c0.227-0.085,0.358-0.32,0.314-0.557c-0.043-0.238-0.25-0.41-0.491-0.41V47.873L54.925,47.873z M54.925,47.873v-0.5
	h-8.541l4.735-4.981l3.375,5.735L54.925,47.873v-0.5V47.873l0.431-0.254l-3.711-6.307c-0.08-0.135-0.218-0.225-0.374-0.242
	c-0.155-0.019-0.311,0.037-0.419,0.151l-5.995,6.306c-0.139,0.146-0.177,0.358-0.098,0.542c0.08,0.185,0.259,0.304,0.46,0.304h9.706
	c0.178,0,0.345-0.098,0.434-0.252c0.089-0.155,0.088-0.349-0.003-0.502L54.925,47.873L54.925,47.873z M54.925,47.873l0.431-0.254
	l-3.148-5.351l10.49,2.039l-7.954,3.1L54.925,47.873l0.431-0.254L54.925,47.873l0.181,0.466l9.563-3.728
	c0.207-0.079,0.336-0.288,0.316-0.51c-0.02-0.221-0.185-0.403-0.402-0.445l-13.274-2.58c-0.191-0.037-0.39,0.042-0.504,0.201
	c-0.113,0.16-0.122,0.373-0.021,0.543l3.711,6.307c0.124,0.212,0.383,0.301,0.611,0.212L54.925,47.873L54.925,47.873z
	 M64.488,44.146l0.095-0.49l-6.657-1.295l4.567-2.635l1.52,4.577L64.488,44.146l0.095-0.49L64.488,44.146l0.474-0.157l-1.713-5.16
	c-0.047-0.143-0.156-0.256-0.296-0.31c-0.142-0.054-0.298-0.041-0.429,0.034l-6.258,3.61c-0.18,0.104-0.276,0.31-0.243,0.516
	c0.034,0.205,0.193,0.368,0.398,0.408l7.97,1.549c0.174,0.034,0.354-0.027,0.472-0.16c0.116-0.133,0.154-0.319,0.099-0.487
	L64.488,44.146L64.488,44.146z M64.488,44.146l0.474-0.157l-1.58-4.762l9.031-4.861l-8.301,9.45L64.488,44.146l0.474-0.157
	L64.488,44.146l0.375,0.33l10.134-11.538c0.159-0.181,0.166-0.452,0.016-0.641c-0.15-0.189-0.416-0.244-0.629-0.129l-11.846,6.378
	c-0.214,0.115-0.314,0.367-0.238,0.597l1.713,5.16c0.057,0.17,0.2,0.297,0.375,0.333c0.175,0.035,0.357-0.026,0.476-0.16
	L64.488,44.146L64.488,44.146z M68.698,35.797l-0.237-0.44l-5.107,2.749l0.783-8.937l4.132,6.885L68.698,35.797l-0.237-0.44
	L68.698,35.797l0.429-0.257l-4.924-8.205c-0.112-0.187-0.331-0.279-0.541-0.23c-0.211,0.049-0.367,0.229-0.386,0.443l-1,11.394
	c-0.016,0.184,0.07,0.361,0.224,0.462s0.35,0.109,0.512,0.022l5.923-3.189c0.121-0.064,0.209-0.175,0.245-0.308
	c0.037-0.132,0.018-0.271-0.053-0.389L68.698,35.797L68.698,35.797z M74.621,32.608l0.333-0.373L61.108,19.91
	c-0.174-0.155-0.432-0.169-0.62-0.035c-0.19,0.135-0.263,0.383-0.175,0.598l2.997,7.311c0.048,0.115,0.14,0.211,0.253,0.264
	l10.848,5.016c0.225,0.104,0.493,0.027,0.628-0.18c0.136-0.207,0.1-0.483-0.085-0.647L74.621,32.608l0.21-0.454L64.162,27.22
	l-2.103-5.125l12.229,10.887L74.621,32.608l0.21-0.454L74.621,32.608L74.621,32.608z M74.621,32.608l0.21-0.454l-10.848-5.016
	c-0.198-0.092-0.436-0.043-0.582,0.12c-0.146,0.163-0.168,0.403-0.057,0.591l4.924,8.205c0.139,0.229,0.432,0.311,0.666,0.183
	l5.924-3.188c0.166-0.09,0.269-0.265,0.263-0.455c-0.006-0.189-0.118-0.359-0.29-0.439L74.621,32.608l-0.237-0.439l-5.503,2.963
	l-3.842-6.403l9.372,4.334L74.621,32.608l-0.237-0.439L74.621,32.608L74.621,32.608z M74.621,32.608l0.333-0.373l-3.647-3.246
	l3.882-4.636l-1.063,8.191L74.621,32.608l0.333-0.373L74.621,32.608l0.496,0.065l1.284-9.89c0.028-0.221-0.092-0.434-0.295-0.522
	s-0.441-0.033-0.584,0.137l-5.294,6.32c-0.173,0.207-0.15,0.515,0.052,0.695l4.009,3.568c0.138,0.123,0.334,0.159,0.507,0.096
	c0.173-0.065,0.297-0.222,0.321-0.404L74.621,32.608L74.621,32.608z M74.621,32.608l0.496,0.065l1.204-9.268l3.098,1.14
	l-5.213,7.785L74.621,32.608l0.496,0.065L74.621,32.608l0.416,0.278l5.565-8.313c0.086-0.127,0.108-0.286,0.061-0.433
	c-0.047-0.146-0.158-0.262-0.303-0.314l-4.281-1.576c-0.144-0.053-0.303-0.037-0.433,0.041c-0.13,0.079-0.217,0.213-0.236,0.362
	l-1.285,9.891c-0.029,0.229,0.103,0.45,0.32,0.532s0.462,0.004,0.592-0.19L74.621,32.608L74.621,32.608z M75.906,22.719
	l-0.384-0.321l-3.097,3.697l-0.467-4.783l3.724,1.854L75.906,22.719l-0.384-0.321L75.906,22.719l0.223-0.448l-4.532-2.257
	c-0.163-0.081-0.356-0.067-0.506,0.035c-0.15,0.104-0.232,0.28-0.214,0.461l0.67,6.868c0.019,0.2,0.158,0.37,0.35,0.43
	s0.402-0.003,0.531-0.157l3.861-4.61c0.099-0.118,0.138-0.273,0.105-0.423c-0.03-0.151-0.129-0.277-0.266-0.347L75.906,22.719
	L75.906,22.719z M75.906,22.719l0.223-0.448l-4.071-2.027l1.738-3.247l1.628,5.856L75.906,22.719l0.223-0.448L75.906,22.719
	l0.481-0.134l-1.963-7.06c-0.055-0.195-0.224-0.341-0.427-0.362c-0.202-0.022-0.399,0.081-0.496,0.261l-2.569,4.801
	c-0.063,0.12-0.076,0.259-0.035,0.389c0.041,0.129,0.133,0.234,0.254,0.296l4.531,2.257c0.178,0.088,0.39,0.063,0.541-0.062
	c0.152-0.126,0.217-0.33,0.164-0.52L75.906,22.719L75.906,22.719z M71.374,20.461l0.44,0.236l2.569-4.802
	c0.068-0.128,0.078-0.28,0.026-0.416c-0.052-0.135-0.162-0.241-0.298-0.291l-4.995-1.791c-0.185-0.064-0.388-0.019-0.524,0.119
	c-0.137,0.139-0.182,0.342-0.114,0.525l2.427,6.592c0.067,0.186,0.236,0.313,0.435,0.326c0.197,0.014,0.382-0.089,0.475-0.263
	L71.374,20.461l0.469-0.172l-2.056-5.588l3.441,1.233l-2.296,4.29L71.374,20.461l0.469-0.172L71.374,20.461L71.374,20.461z
	 M73.942,15.661l0.17-0.472l-4.594-1.646l0.546-2.88l3.46,5.271L73.942,15.661l0.17-0.472L73.942,15.661l0.419-0.274l-4.14-6.306
	c-0.111-0.171-0.315-0.256-0.516-0.217c-0.199,0.039-0.355,0.196-0.394,0.397l-0.855,4.515c-0.046,0.241,0.09,0.48,0.322,0.563
	l4.995,1.792c0.201,0.072,0.429,0.007,0.562-0.162c0.133-0.168,0.143-0.404,0.025-0.583L73.942,15.661L73.942,15.661z
	 M80.188,24.295l0.173-0.469l-3.663-1.35l3.64-5.034l-0.647,6.806L80.188,24.295l0.173-0.469L80.188,24.295l0.497,0.048l0.821-8.636
	c0.021-0.225-0.111-0.437-0.321-0.516c-0.211-0.078-0.449-0.007-0.582,0.176l-5.102,7.059c-0.092,0.127-0.119,0.289-0.073,0.439
	c0.045,0.149,0.158,0.269,0.306,0.322l4.281,1.576c0.146,0.054,0.309,0.037,0.439-0.046c0.131-0.082,0.217-0.221,0.23-0.375
	L80.188,24.295L80.188,24.295z M81.008,15.661l-0.044,0.498l1.765,0.156l-1.698,4.408l0.476-5.016L81.008,15.661l-0.044,0.498
	L81.008,15.661l-0.497-0.047l-0.821,8.635c-0.023,0.249,0.14,0.476,0.384,0.534c0.244,0.057,0.49-0.073,0.581-0.308l3.247-8.42
	c0.057-0.146,0.041-0.311-0.043-0.444c-0.082-0.133-0.224-0.22-0.38-0.233l-2.426-0.215c-0.273-0.024-0.516,0.177-0.542,0.451
	L81.008,15.661L81.008,15.661z M83.435,15.875l0.044-0.498l-1.661-0.147l1.566-2.831l-0.445,3.412L83.435,15.875l0.044-0.498
	L83.435,15.875l0.496,0.064l0.785-6.02c0.031-0.238-0.112-0.465-0.34-0.54c-0.229-0.074-0.479,0.022-0.594,0.233l-3.211,5.805
	c-0.082,0.147-0.083,0.328-0.004,0.477c0.078,0.149,0.229,0.248,0.396,0.264l2.427,0.215c0.268,0.023,0.505-0.167,0.54-0.434
	L83.435,15.875L83.435,15.875z M83.435,15.875l0.496,0.064l0.752-5.769l1.904-1.05l-3.59,6.513L83.435,15.875l0.496,0.064
	L83.435,15.875l0.438,0.242l4.424-8.027c0.107-0.194,0.073-0.438-0.084-0.595c-0.157-0.157-0.401-0.191-0.595-0.084l-3.641,2.007
	c-0.139,0.076-0.232,0.215-0.254,0.373l-0.785,6.02c-0.03,0.238,0.112,0.465,0.341,0.539c0.228,0.075,0.478-0.022,0.594-0.232
	L83.435,15.875L83.435,15.875z M87.858,7.849l-0.24-0.438l-2.905,1.602l-0.049-5.714l2.762,4.799L87.858,7.849l-0.24-0.438
	L87.858,7.849L88.293,7.6l-3.711-6.45c-0.113-0.195-0.346-0.292-0.565-0.232c-0.218,0.059-0.371,0.26-0.369,0.486L83.72,9.86
	c0.001,0.176,0.096,0.34,0.247,0.428c0.152,0.089,0.341,0.091,0.494,0.006l3.64-2.006c0.117-0.065,0.204-0.176,0.24-0.304
	c0.036-0.129,0.018-0.269-0.048-0.384L87.858,7.849L87.858,7.849z M34.573,52.128l0.431,0.254l3.711-6.306
	c0.1-0.169,0.091-0.383-0.022-0.542c-0.114-0.16-0.312-0.24-0.504-0.203l-13.274,2.58c-0.218,0.043-0.383,0.225-0.402,0.445
	c-0.02,0.222,0.109,0.431,0.316,0.512l9.563,3.726c0.229,0.09,0.487,0,0.612-0.212L34.573,52.128l0.182-0.465l-7.954-3.101
	l10.49-2.038l-3.149,5.351L34.573,52.128l0.182-0.465L34.573,52.128L34.573,52.128z M25.01,48.402l0.096,0.491l7.97-1.549
	c0.205-0.04,0.363-0.203,0.398-0.408c0.034-0.206-0.063-0.412-0.243-0.516l-6.258-3.611c-0.13-0.075-0.288-0.087-0.428-0.034
	c-0.14,0.055-0.249,0.168-0.297,0.311l-1.712,5.16c-0.056,0.168-0.018,0.354,0.099,0.486c0.117,0.134,0.297,0.195,0.471,0.161
	L25.01,48.402l0.475,0.158l1.519-4.578l4.568,2.636l-6.657,1.294L25.01,48.402l0.475,0.158L25.01,48.402L25.01,48.402z
	 M25.01,48.402l0.475,0.158l1.713-5.16c0.076-0.23-0.024-0.482-0.238-0.598l-11.847-6.378c-0.212-0.114-0.478-0.06-0.628,0.129
	c-0.15,0.189-0.144,0.46,0.016,0.641l10.134,11.538c0.118,0.135,0.3,0.196,0.475,0.16c0.175-0.035,0.319-0.163,0.375-0.332
	L25.01,48.402l0.376-0.329l-8.301-9.451l9.031,4.862l-1.58,4.762L25.01,48.402l0.376-0.329L25.01,48.402L25.01,48.402z M20.8,40.054
	l-0.237,0.44l5.923,3.188c0.161,0.087,0.359,0.078,0.512-0.022c0.153-0.102,0.239-0.278,0.223-0.461l-0.999-11.395
	c-0.019-0.215-0.175-0.395-0.386-0.444c-0.21-0.048-0.43,0.046-0.541,0.23l-4.924,8.205c-0.071,0.118-0.09,0.258-0.053,0.39
	c0.036,0.134,0.124,0.243,0.245,0.309L20.8,40.054l0.428,0.257l4.132-6.885l0.784,8.938l-5.107-2.75L20.8,40.054l0.428,0.257
	L20.8,40.054L20.8,40.054z M14.876,36.865l0.333,0.374l12.229-10.888l-2.102,5.126l-10.67,4.935L14.876,36.865l0.333,0.374
	L14.876,36.865l0.21,0.453l10.848-5.016c0.114-0.053,0.205-0.146,0.253-0.264l2.997-7.31c0.088-0.215,0.016-0.464-0.174-0.598
	s-0.448-0.12-0.621,0.035L14.544,36.492c-0.185,0.164-0.222,0.44-0.086,0.647c0.136,0.207,0.403,0.283,0.628,0.179L14.876,36.865
	L14.876,36.865z M14.876,36.865l0.21,0.453l9.373-4.334l-3.842,6.403l-5.504-2.963L14.876,36.865l0.21,0.453L14.876,36.865
	l-0.237,0.44l5.924,3.189c0.235,0.126,0.528,0.046,0.665-0.184l4.925-8.205c0.112-0.188,0.089-0.429-0.057-0.592
	s-0.383-0.211-0.582-0.119l-10.848,5.017c-0.172,0.079-0.284,0.249-0.29,0.438c-0.005,0.19,0.096,0.366,0.263,0.456L14.876,36.865
	L14.876,36.865z M14.876,36.865l0.333,0.374l4.009-3.569c0.201-0.179,0.224-0.487,0.05-0.694l-5.293-6.321
	c-0.142-0.17-0.381-0.226-0.584-0.136c-0.203,0.089-0.323,0.302-0.295,0.522l1.284,9.889c0.024,0.183,0.148,0.339,0.321,0.404
	c0.174,0.064,0.369,0.027,0.508-0.095L14.876,36.865l0.496-0.064l-1.064-8.19l3.882,4.636l-3.646,3.246L14.876,36.865l0.496-0.064
	L14.876,36.865L14.876,36.865z M14.876,36.865l0.496-0.064l-1.284-9.889c-0.02-0.15-0.107-0.285-0.237-0.363
	c-0.13-0.079-0.289-0.094-0.432-0.042l-4.282,1.577c-0.144,0.053-0.255,0.168-0.303,0.313c-0.047,0.146-0.025,0.306,0.06,0.434
	l5.567,8.313c0.129,0.193,0.374,0.271,0.591,0.189c0.218-0.081,0.35-0.301,0.32-0.532L14.876,36.865l0.416-0.278l-5.213-7.785
	l3.098-1.14l1.203,9.268L14.876,36.865l0.416-0.278L14.876,36.865L14.876,36.865z M13.592,26.976l-0.383,0.321l3.861,4.61
	c0.129,0.153,0.339,0.216,0.531,0.156c0.192-0.059,0.331-0.229,0.35-0.429l0.67-6.869c0.018-0.181-0.064-0.356-0.214-0.46
	c-0.15-0.103-0.344-0.117-0.507-0.036l-4.531,2.258c-0.138,0.068-0.235,0.195-0.267,0.346c-0.031,0.15,0.008,0.306,0.107,0.424
	L13.592,26.976l0.223,0.447l3.723-1.855l-0.467,4.784l-3.096-3.698L13.592,26.976l0.223,0.447L13.592,26.976L13.592,26.976z
	 M13.592,26.976l0.223,0.447l4.531-2.258c0.122-0.061,0.212-0.166,0.254-0.295c0.041-0.129,0.028-0.27-0.036-0.389l-2.569-4.801
	c-0.096-0.18-0.293-0.284-0.496-0.261c-0.202,0.021-0.372,0.166-0.427,0.363l-1.962,7.059c-0.053,0.19,0.011,0.394,0.164,0.519
	c0.152,0.127,0.364,0.15,0.541,0.063L13.592,26.976l0.482,0.133l1.628-5.856L17.44,24.5l-4.071,2.027L13.592,26.976l0.482,0.133
	L13.592,26.976L13.592,26.976z M18.123,24.718l0.441-0.236l-2.296-4.29l3.443-1.234l-2.057,5.588L18.123,24.718l0.441-0.236
	L18.123,24.718l0.47,0.173l2.426-6.593c0.067-0.183,0.023-0.387-0.114-0.525c-0.137-0.138-0.341-0.184-0.524-0.117l-4.996,1.791
	c-0.136,0.049-0.245,0.155-0.297,0.29c-0.052,0.136-0.043,0.288,0.025,0.415l2.569,4.803c0.094,0.174,0.279,0.275,0.476,0.263
	c0.197-0.014,0.366-0.141,0.435-0.326L18.123,24.718L18.123,24.718z M15.554,19.917l0.169,0.47l4.995-1.791
	c0.232-0.083,0.369-0.322,0.323-0.563l-0.856-4.516c-0.039-0.2-0.194-0.356-0.394-0.396c-0.2-0.04-0.404,0.046-0.516,0.216
	l-4.139,6.306c-0.118,0.18-0.107,0.415,0.025,0.584c0.133,0.168,0.36,0.234,0.562,0.161L15.554,19.917l0.418,0.273l3.461-5.271
	l0.546,2.88l-4.594,1.647L15.554,19.917l0.418,0.273L15.554,19.917L15.554,19.917z M9.31,28.552l0.173,0.469l4.282-1.576
	c0.147-0.055,0.259-0.173,0.305-0.323s0.019-0.312-0.073-0.438l-5.103-7.059c-0.131-0.184-0.371-0.255-0.581-0.175
	c-0.211,0.078-0.343,0.291-0.322,0.515l0.821,8.635c0.015,0.155,0.1,0.293,0.231,0.376c0.132,0.083,0.294,0.101,0.44,0.046
	L9.31,28.552l0.498-0.048L9.161,21.7l3.639,5.034l-3.663,1.35L9.31,28.552l0.498-0.048L9.31,28.552L9.31,28.552z M8.489,19.917
	l-0.044-0.499l-2.426,0.215c-0.157,0.014-0.298,0.101-0.381,0.234C5.555,20,5.54,20.166,5.596,20.311l3.247,8.421
	c0.09,0.233,0.338,0.364,0.581,0.307c0.244-0.058,0.407-0.284,0.384-0.534L8.987,19.87c-0.026-0.273-0.268-0.476-0.542-0.451
	L8.489,19.917l-0.498,0.047l0.477,5.015l-1.7-4.407l1.765-0.156L8.489,19.917l-0.498,0.047L8.489,19.917L8.489,19.917z
	 M6.063,20.132l0.044,0.498l2.426-0.215C8.701,20.4,8.851,20.3,8.931,20.151c0.079-0.148,0.077-0.328-0.004-0.477l-3.212-5.804
	c-0.116-0.21-0.365-0.309-0.593-0.233c-0.229,0.075-0.371,0.302-0.34,0.54l0.785,6.02c0.035,0.267,0.272,0.456,0.54,0.434
	L6.063,20.132l0.496-0.065l-0.445-3.41l1.566,2.829l-1.661,0.147L6.063,20.132l0.496-0.065L6.063,20.132L6.063,20.132z
	 M6.063,20.132l0.496-0.065l-0.786-6.02c-0.02-0.157-0.115-0.296-0.254-0.373L1.88,11.668c-0.195-0.108-0.438-0.073-0.595,0.084
	C1.128,11.91,1.093,12.152,1.2,12.347l4.425,8.026c0.116,0.21,0.365,0.308,0.593,0.233c0.229-0.074,0.372-0.302,0.341-0.54
	L6.063,20.132l0.438-0.242l-3.59-6.512l1.904,1.05l0.752,5.769L6.063,20.132l0.438-0.242L6.063,20.132L6.063,20.132z M1.638,12.106
	l-0.241,0.438l3.639,2.007c0.154,0.085,0.343,0.082,0.494-0.006c0.152-0.089,0.246-0.252,0.248-0.428l0.071-8.456
	c0.002-0.227-0.15-0.428-0.369-0.486C5.262,5.115,5.029,5.21,4.916,5.408l-3.711,6.448c-0.067,0.116-0.084,0.255-0.048,0.385
	c0.036,0.129,0.123,0.238,0.24,0.303L1.638,12.106l0.434,0.249l2.761-4.8l-0.048,5.714L1.88,11.668L1.638,12.106l0.434,0.249
	L1.638,12.106L1.638,12.106z M45.02,51.631l0.5,0.026l0.198-3.76c0.009-0.17-0.069-0.333-0.208-0.433
	c-0.138-0.099-0.318-0.121-0.477-0.057l-10.646,4.256c-0.227,0.091-0.354,0.332-0.303,0.57c0.052,0.239,0.269,0.404,0.513,0.394
	l10.447-0.498c0.256-0.012,0.462-0.217,0.476-0.473L45.02,51.631l-0.024-0.5l-7.473,0.356l7.155-2.86l-0.157,2.977L45.02,51.631
	l-0.024-0.5L45.02,51.631L45.02,51.631z M34.573,52.128l0.431,0.254l3.513-5.97l5.178,1.53l-9.308,3.722L34.573,52.128l0.431,0.254
	L34.573,52.128l0.186,0.465l10.646-4.257c0.197-0.079,0.324-0.275,0.313-0.487c-0.01-0.213-0.153-0.396-0.357-0.457l-6.935-2.049
	c-0.22-0.065-0.456,0.028-0.573,0.227l-3.711,6.306c-0.109,0.185-0.088,0.417,0.052,0.579c0.139,0.163,0.366,0.218,0.565,0.139
	L34.573,52.128L34.573,52.128z M38.284,45.823l-0.095-0.491l-2.699,0.524l2.081-7.662l0.213,7.643L38.284,45.823l-0.095-0.491
	L38.284,45.823l0.5-0.015l-0.308-11.027c-0.007-0.248-0.195-0.453-0.441-0.483c-0.246-0.029-0.478,0.127-0.542,0.366L34.315,46.37
	c-0.045,0.166-0.001,0.345,0.116,0.471c0.117,0.126,0.293,0.184,0.462,0.151l3.487-0.679c0.24-0.047,0.411-0.26,0.404-0.505
	L38.284,45.823L38.284,45.823z M38.284,45.823l0.5-0.015l-0.308-11.027l-0.5,0.014l-0.439,0.239l0.004,0.009
	c0.036,0.076,0.13,0.364,0.238,0.749c0.385,1.362,1.041,4.099,1.596,6.481c0.556,2.387,1.013,4.422,1.014,4.426l0.488-0.109
	l0.142-0.48l-2.593-0.766L38.284,45.823l0.5-0.015L38.284,45.823l-0.141,0.479l2.592,0.766c0.17,0.051,0.354,0.008,0.483-0.113
	c0.13-0.121,0.185-0.303,0.147-0.476c-0.001-0.001-0.619-2.753-1.291-5.606c-0.337-1.428-0.686-2.878-0.98-4.026
	c-0.146-0.575-0.279-1.073-0.39-1.458c-0.056-0.191-0.106-0.355-0.151-0.491c-0.047-0.137-0.081-0.233-0.138-0.342
	c-0.11-0.203-0.346-0.304-0.569-0.244c-0.223,0.061-0.376,0.267-0.37,0.497l0.308,11.028c0.007,0.216,0.151,0.405,0.359,0.466
	L38.284,45.823L38.284,45.823z"/>
</svg>
